<svg version="1.1" viewBox="0.0 0.0 669.8267716535433 203.501312335958" fill="none" stroke="none" stroke-linecap="square" stroke-miterlimit="10" xmlns:xlink="http://www.w3.org/1999/xlink" xmlns="http://www.w3.org/2000/svg"><clipPath id="p.0"><path d="m0 0l669.8268 0l0 203.50131l-669.8268 0l0 -203.50131z" clip-rule="nonzero"/></clipPath><g clip-path="url(#p.0)"><path fill="#000000" fill-opacity="0.0" d="m0 0l669.8268 0l0 203.50131l-669.8268 0z" fill-rule="evenodd"/><path fill="#000000" fill-opacity="0.0" d="m352.87402 120.83465l0 0c0 -23.691711 25.502136 -42.897644 56.960632 -42.897644l0 0c31.458466 0 56.960632 19.205933 56.960632 42.897644l0 0c0 23.691704 -25.502167 42.897636 -56.960632 42.897636l0 0c-31.458496 0 -56.960632 -19.205933 -56.960632 -42.897636z" fill-rule="evenodd"/><path stroke="#000000" stroke-width="1.0" stroke-linejoin="round" stroke-linecap="butt" d="m352.87402 120.83465l0 0c0 -23.691711 25.502136 -42.897644 56.960632 -42.897644l0 0c31.458466 0 56.960632 19.205933 56.960632 42.897644l0 0c0 23.691704 -25.502167 42.897636 -56.960632 42.897636l0 0c-31.458496 0 -56.960632 -19.205933 -56.960632 -42.897636z" fill-rule="evenodd"/><path fill="#000000" fill-opacity="0.0" d="m547.3884 120.83465l0 0c0 -23.691711 25.502136 -42.897644 56.960632 -42.897644l0 0c31.458496 0 56.960632 19.205933 56.960632 42.897644l0 0c0 23.691704 -25.502136 42.897636 -56.960632 42.897636l0 0c-31.458496 0 -56.960632 -19.205933 -56.960632 -42.897636z" fill-rule="evenodd"/><path stroke="#000000" stroke-width="1.0" stroke-linejoin="round" stroke-linecap="butt" d="m547.3884 120.83465l0 0c0 -23.691711 25.502136 -42.897644 56.960632 -42.897644l0 0c31.458496 0 56.960632 19.205933 56.960632 42.897644l0 0c0 23.691704 -25.502136 42.897636 -56.960632 42.897636l0 0c-31.458496 0 -56.960632 -19.205933 -56.960632 -42.897636z" fill-rule="evenodd"/><path fill="#000000" fill-opacity="0.0" d="m27.587927 119.6063l130.77165 1.2283478" fill-rule="evenodd"/><path stroke="#000000" stroke-width="1.0" stroke-linejoin="round" stroke-linecap="butt" d="m27.587927 119.6063l124.77192 1.1719894" fill-rule="evenodd"/><path fill="#000000" stroke="#000000" stroke-width="1.0" stroke-linecap="butt" d="m152.34433 122.42995l4.553406 -1.6090317l-4.5223694 -1.6942825z" fill-rule="evenodd"/><path fill="#000000" fill-opacity="0.0" d="m272.28085 120.83465l80.59842 0" fill-rule="evenodd"/><path stroke="#000000" stroke-width="1.0" stroke-linejoin="round" stroke-linecap="butt" d="m272.28085 120.83465l74.59842 0" fill-rule="evenodd"/><path fill="#000000" stroke="#000000" stroke-width="1.0" stroke-linecap="butt" d="m346.87927 122.48638l4.538086 -1.6517334l-4.538086 -1.6517334z" fill-rule="evenodd"/><path fill="#000000" fill-opacity="0.0" d="m466.7953 106.77428l80.59839 0" fill-rule="evenodd"/><path stroke="#000000" stroke-width="1.0" stroke-linejoin="round" stroke-linecap="butt" d="m466.7953 106.77428l74.59839 0" fill-rule="evenodd"/><path fill="#000000" stroke="#000000" stroke-width="1.0" stroke-linecap="butt" d="m541.3937 108.42601l4.538147 -1.6517334l-4.538147 -1.6517334z" fill-rule="evenodd"/><path fill="#000000" fill-opacity="0.0" d="m547.3884 120.83465l-80.59839 0" fill-rule="evenodd"/><path stroke="#000000" stroke-width="1.0" stroke-linejoin="round" stroke-linecap="butt" d="m547.3884 120.83465l-74.59839 0" fill-rule="evenodd"/><path fill="#000000" stroke="#000000" stroke-width="1.0" stroke-linecap="butt" d="m472.79004 119.182915l-4.5381165 1.6517334l4.5381165 1.6517334z" fill-rule="evenodd"/><path fill="#000000" fill-opacity="0.0" d="m410.07874 79.34482c5.625122 -8.203415 26.953644 -49.68898 33.75067 -49.220474c6.7970276 0.46850395 5.859558 43.35958 7.031494 52.031494" fill-rule="evenodd"/><path stroke="#000000" stroke-width="1.0" stroke-linejoin="round" stroke-linecap="butt" d="m410.07874 79.34482c5.625122 -8.203415 26.953644 -49.68898 33.75067 -49.220474c6.7970276 0.46850395 5.859558 43.35958 7.031494 52.031494" fill-rule="evenodd"/><path fill="#000000" d="m457.8924 76.54068l-4.9212646 0l0 -11.259842l-9.842529 0l0 11.259842l-4.9212646 0l9.842529 9.842522z" fill-rule="evenodd"/><path stroke="#000000" stroke-width="1.0" stroke-linejoin="round" stroke-linecap="butt" d="m457.8924 76.54068l-4.9212646 0l0 -11.259842l-9.842529 0l0 11.259842l-4.9212646 0l9.842529 9.842522z" fill-rule="evenodd"/><path fill="#000000" fill-opacity="0.0" d="m158.35957 120.83465l0 0c0 -23.691711 25.502151 -42.897644 56.960632 -42.897644l0 0c31.458496 0 56.960648 19.205933 56.960648 42.897644l0 0c0 23.691704 -25.502151 42.897636 -56.960648 42.897636l0 0c-31.45848 0 -56.960632 -19.205933 -56.960632 -42.897636z" fill-rule="evenodd"/><path stroke="#000000" stroke-width="1.0" stroke-linejoin="round" stroke-linecap="butt" d="m158.35957 120.83465l0 0c0 -23.691711 25.502151 -42.897644 56.960632 -42.897644l0 0c31.458496 0 56.960648 19.205933 56.960648 42.897644l0 0c0 23.691704 -25.502151 42.897636 -56.960648 42.897636l0 0c-31.45848 0 -56.960632 -19.205933 -56.960632 -42.897636z" fill-rule="evenodd"/><path fill="#000000" fill-opacity="0.0" d="m211.81364 79.343506c5.625107 -8.203415 26.953629 -49.68898 33.750656 -49.220474c6.7970276 0.46850395 5.8595886 43.35958 7.031494 52.031494" fill-rule="evenodd"/><path stroke="#000000" stroke-width="1.0" stroke-linejoin="round" stroke-linecap="butt" d="m211.81364 79.343506c5.625107 -8.203415 26.953629 -49.68898 33.750656 -49.220474c6.7970276 0.46850395 5.8595886 43.35958 7.031494 52.031494" fill-rule="evenodd"/><path fill="#000000" d="m262.43832 76.53937l-4.9212646 0l0 -11.259842l-9.842514 0l0 11.259842l-4.9212646 0l9.842514 9.842522z" fill-rule="evenodd"/><path stroke="#000000" stroke-width="1.0" stroke-linejoin="round" stroke-linecap="butt" d="m262.43832 76.53937l-4.9212646 0l0 -11.259842l-9.842514 0l0 11.259842l-4.9212646 0l9.842514 9.842522z" fill-rule="evenodd"/><path fill="#000000" fill-opacity="0.0" d="m211.7979 11.84252l30.960632 0l0 38.58268l-30.960632 0z" fill-rule="evenodd"/><path fill="#000000" d="m221.57915 32.168766q0 -2.359373 0.484375 -3.796873q0.484375 -1.453125 1.4375 -2.234375q0.96875 -0.78125 2.421875 -0.78125q1.078125 0 1.890625 0.4375q0.8125 0.421875 1.328125 1.25q0.53125 0.8125 0.828125 1.984375q0.3125 1.15625 0.3125 3.140623q0 2.359375 -0.484375 3.8125q-0.484375 1.4375 -1.453125 2.234375q-0.953125 0.78125 -2.421875 0.78125q-1.921875 0 -3.03125 -1.390625q-1.3125 -1.671875 -1.3125 -5.4375zm1.671875 0q0 3.296875 0.765625 4.390625q0.78125 1.078125 1.90625 1.078125q1.140625 0 1.90625 -1.09375q0.765625 -1.09375 0.765625 -4.375q0 -3.296873 -0.765625 -4.374998q-0.765625 -1.078125 -1.921875 -1.078125q-1.125 0 -1.796875 0.953125q-0.859375 1.21875 -0.859375 4.499998z" fill-rule="nonzero"/><path fill="#000000" fill-opacity="0.0" d="m187.88715 101.543304l54.866135 0l0 38.582687l-54.866135 0z" fill-rule="evenodd"/><path fill="#000000" d="m204.27777 132.16643l0 -4.734375q-0.375 0.546875 -1.0625 0.90625q-0.6875 0.34375 -1.46875 0.34375q-1.71875 0 -2.96875 -1.375q-1.234375 -1.375 -1.234375 -3.765625q0 -1.46875 0.5 -2.625q0.515625 -1.15625 1.46875 -1.75q0.96875 -0.59375 2.109375 -0.59375q1.796875 0 2.828125 1.515625l0 -1.296875l1.46875 0l0 13.375l-1.640625 0zm-5.046875 -8.5625q0 1.859375 0.78125 2.796875q0.78125 0.9375 1.875 0.9375q1.046875 0 1.796875 -0.890625q0.765625 -0.890625 0.765625 -2.703125q0 -1.9375 -0.796875 -2.90625q-0.796875 -0.96875 -1.875 -0.96875q-1.0625 0 -1.8125 0.90625q-0.734375 0.90625 -0.734375 2.828125zm8.813217 -1.734375q0 -2.359375 0.484375 -3.796875q0.484375 -1.453125 1.4375 -2.234375q0.96875 -0.78125 2.421875 -0.78125q1.078125 0 1.890625 0.4375q0.8125 0.421875 1.328125 1.25q0.53125 0.8125 0.828125 1.984375q0.3125 1.15625 0.3125 3.140625q0 2.359375 -0.484375 3.8125q-0.484375 1.4375 -1.453125 2.234375q-0.953125 0.78125 -2.421875 0.78125q-1.921875 0 -3.03125 -1.390625q-1.3125 -1.671875 -1.3125 -5.4375zm1.671875 0q0 3.296875 0.765625 4.390625q0.78125 1.078125 1.90625 1.078125q1.140625 0 1.90625 -1.09375q0.765625 -1.09375 0.765625 -4.375q0 -3.296875 -0.765625 -4.375q-0.765625 -1.078125 -1.921875 -1.078125q-1.125 0 -1.796875 0.953125q-0.859375 1.21875 -0.859375 4.5z" fill-rule="nonzero"/><path fill="#000000" fill-opacity="0.0" d="m382.40158 100.92913l54.86615 0l0 38.58268l-54.86615 0z" fill-rule="evenodd"/><path fill="#000000" d="m398.7922 131.55226l0 -4.7343826q-0.375 0.546875 -1.0625 0.90625q-0.6875 0.34375763 -1.46875 0.34375763q-1.71875 0 -2.96875 -1.3750076q-1.234375 -1.375 -1.234375 -3.765625q0 -1.46875 0.5 -2.625q0.515625 -1.15625 1.46875 -1.75q0.96875 -0.59375 2.109375 -0.59375q1.796875 0 2.828125 1.515625l0 -1.296875l1.46875 0l0 13.375008l-1.640625 0zm-5.046875 -8.562508q0 1.859375 0.78125 2.796875q0.78125 0.9375 1.875 0.9375q1.046875 0 1.796875 -0.890625q0.765625 -0.890625 0.765625 -2.703125q0 -1.9375 -0.796875 -2.90625q-0.796875 -0.96875 -1.875 -0.96875q-1.0625 0 -1.8125 0.90625q-0.734375 0.90625 -0.734375 2.828125zm14.985077 4.859375l-1.640625 0l0 -10.453125q-0.59375 0.5625 -1.5625 1.140625q-0.953125 0.5625 -1.71875 0.84375l0 -1.59375q1.375 -0.640625 2.40625 -1.5625q1.03125 -0.921875 1.453125 -1.78125l1.0625 0l0 13.40625z" fill-rule="nonzero"/><path fill="#000000" fill-opacity="0.0" d="m576.91077 106.77428l54.86615 0l0 38.582672l-54.86615 0z" fill-rule="evenodd"/><path fill="#000000" d="m593.3014 137.3974l0 -4.734375q-0.375 0.546875 -1.0625 0.90625q-0.6875 0.34375 -1.46875 0.34375q-1.71875 0 -2.96875 -1.375q-1.234375 -1.375 -1.234375 -3.765625q0 -1.46875 0.5 -2.625q0.515625 -1.15625 1.46875 -1.75q0.96875 -0.59375 2.109375 -0.59375q1.796875 0 2.828125 1.515625l0 -1.296875l1.46875 0l0 13.375l-1.640625 0zm-5.046875 -8.5625q0 1.859375 0.78125 2.796875q0.78125 0.9375 1.875 0.9375q1.046875 0 1.796875 -0.890625q0.765625 -0.890625 0.765625 -2.703125q0 -1.9375 -0.796875 -2.90625q-0.796875 -0.96875 -1.875 -0.96875q-1.0625 0 -1.8125 0.90625q-0.734375 0.90625 -0.734375 2.828125zm17.422607 3.28125l0 1.578125l-8.828125 0q-0.015625 -0.59375 0.1875 -1.140625q0.34375 -0.90625 1.078125 -1.78125q0.75 -0.875 2.15625 -2.015625q2.171875 -1.78125 2.9375 -2.828125q0.765625 -1.046875 0.765625 -1.96875q0 -0.984375 -0.703125 -1.640625q-0.6875 -0.671875 -1.8125 -0.671875q-1.1875 0 -1.90625 0.71875q-0.703125 0.703125 -0.703125 1.953125l-1.6875 -0.171875q0.171875 -1.890625 1.296875 -2.875q1.140625 -0.984375 3.03125 -0.984375q1.921875 0 3.046875 1.0625q1.125 1.0625 1.125 2.640625q0 0.796875 -0.328125 1.578125q-0.328125 0.78125 -1.09375 1.640625q-0.75 0.84375 -2.53125 2.34375q-1.46875 1.234375 -1.890625 1.6875q-0.421875 0.4375 -0.6875 0.875l6.546875 0z" fill-rule="nonzero"/><path fill="#000000" fill-opacity="0.0" d="m419.92126 0l30.929138 0l0 38.582676l-30.929138 0z" fill-rule="evenodd"/><path fill="#000000" d="m435.8744 26.919998l-1.640625 0l0 -10.453125q-0.59375 0.5625 -1.5625 1.140625q-0.953125 0.5625 -1.71875 0.84375l0 -1.59375q1.375 -0.640625 2.40625 -1.5625q1.03125 -0.921875 1.453125 -1.78125l1.0625 0l0 13.40625z" fill-rule="nonzero"/><path fill="#000000" fill-opacity="0.0" d="m491.6273 68.191605l30.929169 0l0 38.582672l-30.929169 0z" fill-rule="evenodd"/><path fill="#000000" d="m501.40854 88.51785q0 -2.359375 0.484375 -3.796875q0.484375 -1.453125 1.4375 -2.234375q0.96875 -0.78125 2.421875 -0.78125q1.078125 0 1.890625 0.4375q0.8125 0.421875 1.328125 1.25q0.53125 0.8125 0.828125 1.984375q0.3125 1.15625 0.3125 3.140625q0 2.359375 -0.484375 3.8125q-0.484375 1.4375 -1.453125 2.234375q-0.953125 0.78125 -2.421875 0.78125q-1.921875 0 -3.03125 -1.390625q-1.3125 -1.671875 -1.3125 -5.4375zm1.671875 0q0 3.296875 0.765625 4.390625q0.78125 1.078125 1.90625 1.078125q1.140625 0 1.90625 -1.09375q0.765625 -1.09375 0.765625 -4.375q0 -3.296875 -0.765625 -4.375q-0.765625 -1.078125 -1.921875 -1.078125q-1.125 0 -1.796875 0.953125q-0.859375 1.21875 -0.859375 4.5z" fill-rule="nonzero"/><path fill="#000000" fill-opacity="0.0" d="m491.6273 119.6063l30.929169 0l0 38.58268l-30.929169 0z" fill-rule="evenodd"/><path fill="#000000" d="m501.40854 139.93254q0 -2.359375 0.484375 -3.796875q0.484375 -1.453125 1.4375 -2.234375q0.96875 -0.78125 2.421875 -0.78125q1.078125 0 1.890625 0.4375q0.8125 0.421875 1.328125 1.25q0.53125 0.8125 0.828125 1.984375q0.3125 1.15625 0.3125 3.140625q0 2.359375 -0.484375 3.8125q-0.484375 1.4375 -1.453125 2.234375q-0.953125 0.78125 -2.421875 0.78125q-1.921875 0 -3.03125 -1.390625q-1.3125 -1.671875 -1.3125 -5.4375zm1.671875 0q0 3.296875 0.765625 4.390625q0.78125 1.078125 1.90625 1.078125q1.140625 0 1.90625 -1.09375q0.765625 -1.09375 0.765625 -4.375q0 -3.296875 -0.765625 -4.375q-0.765625 -1.078125 -1.921875 -1.078125q-1.125 0 -1.796875 0.953125q-0.859375 1.21875 -0.859375 4.5z" fill-rule="nonzero"/><path fill="#000000" fill-opacity="0.0" d="m275.30185 76.931755l54.86612 0l0 38.58268l-54.86612 0z" fill-rule="evenodd"/><path fill="#000000" d="m291.25497 103.85175l-1.640625 0l0 -10.453125q-0.59375 0.5625 -1.5625 1.140625q-0.953125 0.5625 -1.71875 0.84375l0 -1.59375q1.375 -0.640625 2.40625 -1.5625q1.03125 -0.921875 1.453125 -1.78125l1.0625 0l0 13.40625zm5.078827 0l0 -1.875l1.875 0l0 1.875q0 1.03125 -0.375 1.65625q-0.359375 0.640625 -1.15625 0.984375l-0.453125 -0.703125q0.515625 -0.21875 0.765625 -0.671875q0.25 -0.4375 0.28125 -1.265625l-0.9375 0zm9.491608 -6.59375q0 -2.359375 0.484375 -3.796875q0.484375 -1.453125 1.4375 -2.234375q0.96875 -0.78125 2.421875 -0.78125q1.078125 0 1.890625 0.4375q0.8125 0.421875 1.328125 1.25q0.53125 0.8125 0.828125 1.984375q0.3125 1.15625 0.3125 3.140625q0 2.359375 -0.484375 3.8125q-0.484375 1.4375 -1.453125 2.234375q-0.953125 0.78125 -2.421875 0.78125q-1.921875 0 -3.03125 -1.390625q-1.3125 -1.671875 -1.3125 -5.4375zm1.671875 0q0 3.296875 0.765625 4.390625q0.78125 1.078125 1.90625 1.078125q1.140625 0 1.90625 -1.09375q0.765625 -1.09375 0.765625 -4.375q0 -3.296875 -0.765625 -4.375q-0.765625 -1.078125 -1.921875 -1.078125q-1.125 0 -1.796875 0.953125q-0.859375 1.21875 -0.859375 4.5z" fill-rule="nonzero"/><path fill="#000000" fill-opacity="0.0" d="m360.8189 120.220474l0 0c0 -19.464775 21.730042 -35.244095 48.53543 -35.244095l0 0c26.805359 0 48.53543 15.77932 48.53543 35.244095l0 0c0 19.464767 -21.730072 35.244095 -48.53543 35.244095l0 0c-26.80539 0 -48.53543 -15.779327 -48.53543 -35.244095z" fill-rule="evenodd"/><path stroke="#000000" stroke-width="1.0" stroke-linejoin="round" stroke-linecap="butt" d="m360.8189 120.220474l0 0c0 -19.464775 21.730042 -35.244095 48.53543 -35.244095l0 0c26.805359 0 48.53543 15.77932 48.53543 35.244095l0 0c0 19.464767 -21.730072 35.244095 -48.53543 35.244095l0 0c-26.80539 0 -48.53543 -15.779327 -48.53543 -35.244095z" fill-rule="evenodd"/></g></svg>