<svg version="1.1" viewBox="0.0 0.0 590.9291338582677 371.6640419947507" fill="none" stroke="none" stroke-linecap="square" stroke-miterlimit="10" xmlns:xlink="http://www.w3.org/1999/xlink" xmlns="http://www.w3.org/2000/svg"><clipPath id="p.0"><path d="m0 0l590.92914 0l0 371.66403l-590.92914 0l0 -371.66403z" clip-rule="nonzero"/></clipPath><g clip-path="url(#p.0)"><path fill="#000000" fill-opacity="0.0" d="m0 0l590.92914 0l0 371.66403l-590.92914 0z" fill-rule="evenodd"/><path fill="#000000" fill-opacity="0.0" d="m95.62205 221.27034l0 0c0 -26.405304 23.612572 -47.81102 52.74015 -47.81102l0 0c29.127594 0 52.740158 21.405716 52.740158 47.81102l0 0c0 26.405304 -23.612564 47.81102 -52.740158 47.81102l0 0c-29.127579 0 -52.74015 -21.405716 -52.74015 -47.81102z" fill-rule="evenodd"/><path stroke="#000000" stroke-width="1.0" stroke-linejoin="round" stroke-linecap="butt" d="m95.62205 221.27034l0 0c0 -26.405304 23.612572 -47.81102 52.74015 -47.81102l0 0c29.127594 0 52.740158 21.405716 52.740158 47.81102l0 0c0 26.405304 -23.612564 47.81102 -52.740158 47.81102l0 0c-29.127579 0 -52.74015 -21.405716 -52.74015 -47.81102z" fill-rule="evenodd"/><path fill="#000000" fill-opacity="0.0" d="m116.01575 190.34383l64.69292 0l0 50.61418l-64.69292 0z" fill-rule="evenodd"/><path fill="#000000" d="m137.70325 236.4232l0 -8.125q-0.65625 0.921875 -1.84375 1.53125q-1.171875 0.609375 -2.5 0.609375q-2.953125 0 -5.09375 -2.359375q-2.125 -2.359375 -2.125 -6.46875q0 -2.5 0.859375 -4.484375q0.875 -1.984375 2.515625 -3.0q1.65625 -1.03125 3.625 -1.03125q3.078125 0 4.84375 2.59375l0 -2.21875l2.53125 0l0 22.953125l-2.8125 0zm-8.671875 -14.703125q0 3.203125 1.34375 4.8125q1.34375 1.59375 3.21875 1.59375q1.796875 0 3.09375 -1.515625q1.296875 -1.53125 1.296875 -4.640625q0 -3.3125 -1.375 -4.984375q-1.359375 -1.671875 -3.203125 -1.671875q-1.828125 0 -3.109375 1.5625q-1.265625 1.546875 -1.265625 4.84375zm15.109375 -2.953125q0 -4.0625 0.828125 -6.53125q0.84375 -2.484375 2.484375 -3.828125q1.65625 -1.34375 4.15625 -1.34375q1.84375 0 3.234375 0.75q1.390625 0.734375 2.296875 2.140625q0.90625 1.390625 1.421875 3.40625q0.515625 2.0 0.515625 5.40625q0 4.03125 -0.828125 6.515625q-0.828125 2.46875 -2.484375 3.828125q-1.640625 1.34375 -4.15625 1.34375q-3.3125 0 -5.203125 -2.375q-2.265625 -2.859375 -2.265625 -9.3125zm2.890625 0q0 5.640625 1.3125 7.515625q1.328125 1.859375 3.265625 1.859375q1.9375 0 3.25 -1.875q1.328125 -1.875 1.328125 -7.5q0 -5.65625 -1.328125 -7.515625q-1.3125 -1.859375 -3.28125 -1.859375q-1.9375 0 -3.09375 1.640625q-1.453125 2.09375 -1.453125 7.734375z" fill-rule="nonzero"/><path fill="#000000" fill-opacity="0.0" d="m0 222.68767l95.62205 -1.4173279" fill-rule="evenodd"/><path stroke="#000000" stroke-width="1.0" stroke-linejoin="round" stroke-linecap="butt" d="m0 222.68767l89.6227 -1.3283997" fill-rule="evenodd"/><path fill="#000000" stroke="#000000" stroke-width="1.0" stroke-linecap="butt" d="m89.64719 223.01082l4.5131226 -1.718811l-4.5620804 -1.5842896z" fill-rule="evenodd"/><path fill="#000000" fill-opacity="0.0" d="m264.0402 125.48028l0 0c0 -26.405296 23.619629 -47.81102 52.75592 -47.81102l0 0c29.136261 0 52.75589 21.405724 52.75589 47.81102l0 0c0 26.405296 -23.619629 47.811028 -52.75589 47.811028l0 0c-29.136292 0 -52.75592 -21.405731 -52.75592 -47.811028z" fill-rule="evenodd"/><path stroke="#000000" stroke-width="1.0" stroke-linejoin="round" stroke-linecap="butt" d="m264.0402 125.48028l0 0c0 -26.405296 23.619629 -47.81102 52.75592 -47.81102l0 0c29.136261 0 52.75589 21.405724 52.75589 47.81102l0 0c0 26.405296 -23.619629 47.811028 -52.75589 47.811028l0 0c-29.136292 0 -52.75592 -21.405731 -52.75592 -47.811028z" fill-rule="evenodd"/><path fill="#000000" fill-opacity="0.0" d="m281.2099 96.340416l64.66144 -2.5826797l2.015747 50.582672l-64.66141 2.5826874z" fill-rule="evenodd"/><path fill="#000000" d="m304.71497 141.5177l-0.32351685 -8.118561q-0.61901855 0.9473419 -1.781311 1.6036224q-1.146698 0.65567017 -2.473755 0.70866394q-2.9507751 0.11785889 -5.1836243 -2.1542053q-2.2172546 -2.272705 -2.38089 -6.3788147q-0.09954834 -2.4980164 0.68011475 -4.515114q0.7952881 -2.017723 2.394165 -3.0980225q1.6138611 -1.0965271 3.5810547 -1.1751022q3.0756836 -0.12284851 4.9431763 2.398384l-0.08834839 -2.2169952l2.5292358 -0.10102081l0.91397095 22.934921l-2.8102722 0.11224365zm-9.250427 -14.345367q0.12753296 3.2005768 1.5343018 4.7550507q1.4061584 1.5388641 3.279663 1.464035q1.7954407 -0.07171631 3.0309143 -1.6378937q1.2348938 -1.5818024 1.1110535 -4.6887054q-0.13189697 -3.3098755 -1.5723572 -4.9255524q-1.4248657 -1.6162949 -3.2671509 -1.5427094q-1.8266602 0.0729599 -3.0446777 1.6853561q-1.2030334 1.5961533 -1.0717468 4.890419zm26.014893 7.311325l-2.8102722 0.11224365l-0.71362305 -17.907661q-0.9762268 1.008522 -2.5925903 2.0426025q-1.6007385 1.0334549 -2.8929138 1.5698318l-0.10824585 -2.7165985q2.3132935 -1.202652 4.014679 -2.8499908q1.7013855 -1.6473389 2.376068 -3.159851l1.8110657 -0.07233429l0.9158325 22.981758z" fill-rule="nonzero"/><path fill="#000000" fill-opacity="0.0" d="m180.70949 173.45927l87.11812 -39.401566" fill-rule="evenodd"/><path stroke="#000000" stroke-width="1.0" stroke-linejoin="round" stroke-linecap="butt" d="m180.70949 173.45927l81.65123 -36.929047" fill-rule="evenodd"/><path fill="#000000" stroke="#000000" stroke-width="1.0" stroke-linecap="butt" d="m263.04138 138.0352l3.454193 -3.375061l-4.8154907 0.36512756z" fill-rule="evenodd"/><path fill="#000000" fill-opacity="0.0" d="m466.6299 120.34121l0 0c0 -26.405304 23.61258 -47.811028 52.740143 -47.811028l0 0c29.127625 0 52.740173 21.405724 52.740173 47.811028l0 0c0 26.405296 -23.612549 47.811028 -52.740173 47.811028l0 0c-29.127563 0 -52.740143 -21.405731 -52.740143 -47.811028z" fill-rule="evenodd"/><path stroke="#000000" stroke-width="1.0" stroke-linejoin="round" stroke-linecap="butt" d="m466.6299 120.34121l0 0c0 -26.405304 23.61258 -47.811028 52.740143 -47.811028l0 0c29.127625 0 52.740173 21.405724 52.740173 47.811028l0 0c0 26.405296 -23.612549 47.811028 -52.740173 47.811028l0 0c-29.127563 0 -52.740143 -21.405731 -52.740143 -47.811028z" fill-rule="evenodd"/><path fill="#000000" fill-opacity="0.0" d="m487.02362 89.414696l64.69293 0l0 50.614174l-64.69293 0z" fill-rule="evenodd"/><path fill="#000000" d="m508.71112 135.49408l0 -8.125008q-0.65625 0.9218826 -1.84375 1.5312576q-1.171875 0.609375 -2.5 0.609375q-2.953125 0 -5.09375 -2.3593826q-2.125 -2.359375 -2.125 -6.46875q0 -2.5 0.859375 -4.484375q0.875 -1.984375 2.515625 -3.0q1.65625 -1.03125 3.625 -1.03125q3.078125 0 4.84375 2.59375l0 -2.21875l2.53125 0l0 22.953133l-2.8125 0zm-8.671875 -14.703133q0 3.203125 1.34375 4.8125q1.34375 1.59375 3.21875 1.59375q1.796875 0 3.09375 -1.515625q1.296875 -1.53125 1.296875 -4.640625q0 -3.3125 -1.375 -4.984375q-1.359375 -1.671875 -3.203125 -1.671875q-1.828125 0 -3.109375 1.5625q-1.265625 1.546875 -1.265625 4.84375zm29.890625 5.640625l0 2.7031326l-15.140625 0q-0.03125 -1.015625 0.328125 -1.9531326q0.578125 -1.546875 1.84375 -3.046875q1.28125 -1.5 3.6875 -3.46875q3.734375 -3.0625 5.046875 -4.84375q1.3125 -1.796875 1.3125 -3.390625q0 -1.671875 -1.203125 -2.8125q-1.1875 -1.15625 -3.109375 -1.15625q-2.03125 0 -3.25 1.21875q-1.21875 1.21875 -1.234375 3.375l-2.890625 -0.296875q0.296875 -3.234375 2.234375 -4.921875q1.9375 -1.703125 5.203125 -1.703125q3.296875 0 5.21875 1.828125q1.921875 1.828125 1.921875 4.53125q0 1.375 -0.5625 2.703125q-0.5625 1.328125 -1.875 2.796875q-1.296875 1.46875 -4.328125 4.03125q-2.53125 2.125 -3.25 2.890625q-0.71875 0.75 -1.1875 1.515625l11.234375 0z" fill-rule="nonzero"/><path fill="#000000" fill-opacity="0.0" d="m371.00787 121.75853l95.62204 -1.4173203" fill-rule="evenodd"/><path stroke="#000000" stroke-width="1.0" stroke-linejoin="round" stroke-linecap="butt" d="m371.00787 121.75853l89.62271 -1.3283997" fill-rule="evenodd"/><path fill="#000000" stroke="#000000" stroke-width="1.0" stroke-linecap="butt" d="m460.65506 122.08168l4.5131226 -1.7188034l-4.5620728 -1.5842972z" fill-rule="evenodd"/><path fill="#000000" fill-opacity="0.0" d="m475.13385 120.34121l0 0c0 -23.161171 19.502075 -41.93701 43.559082 -41.93701l0 0c11.552551 0 22.631958 4.41835 30.800903 12.283066c8.168884 7.8647156 12.758118 18.531555 12.758118 29.653946l0 0c0 23.161171 -19.502014 41.937004 -43.55902 41.937004l0 0c-24.057007 0 -43.559082 -18.775833 -43.559082 -41.937004z" fill-rule="evenodd"/><path stroke="#000000" stroke-width="1.0" stroke-linejoin="round" stroke-linecap="butt" d="m475.13385 120.34121l0 0c0 -23.161171 19.502075 -41.93701 43.559082 -41.93701l0 0c11.552551 0 22.631958 4.41835 30.800903 12.283066c8.168884 7.8647156 12.758118 18.531555 12.758118 29.653946l0 0c0 23.161171 -19.502014 41.937004 -43.55902 41.937004l0 0c-24.057007 0 -43.559082 -18.775833 -43.559082 -41.937004z" fill-rule="evenodd"/><path fill="#000000" fill-opacity="0.0" d="m519.37006 72.53018c0 -18.44218 14.397156 -37.610706 26.925232 -36.88436c12.528076 0.72634506 23.187134 21.34756 26.925232 42.331947c3.738037 20.984383 0.55511475 42.33194 1.1101685 42.33194" fill-rule="evenodd"/><path stroke="#000000" stroke-width="1.0" stroke-linejoin="round" stroke-linecap="butt" d="m519.37006 72.53018c0 -18.44218 14.397156 -37.610706 26.925232 -36.88436c12.528076 0.72634506 23.187134 21.34756 26.925232 42.331947c3.738037 20.984383 0.55511475 42.33194 1.1101685 42.33194" fill-rule="evenodd"/><path fill="#000000" d="m510.2362 65.333336l4.5669556 0l0 -7.1968536l9.13385 0l0 7.1968536l4.5669556 0l-9.133911 7.196846z" fill-rule="evenodd"/><path stroke="#000000" stroke-width="1.0" stroke-linejoin="round" stroke-linecap="butt" d="m510.2362 65.333336l4.5669556 0l0 -7.1968536l9.13385 0l0 7.1968536l4.5669556 0l-9.133911 7.196846z" fill-rule="evenodd"/><path fill="#000000" fill-opacity="0.0" d="m609.2442 0.0010325459l-71.18109 3.023622l2.0472412 48.157482l71.18109 -3.0236244z" fill-rule="evenodd"/><path fill="#000000" d="m550.9303 29.422358l-1.5142822 0.064323425l-0.56744385 -13.347321l1.6391602 -0.069625854l0.20245361 4.761324q0.9908447 -1.3401337 2.598755 -1.4084358q0.88983154 -0.037797928 1.7012329 0.28743362q0.81140137 0.32523155 1.3544312 0.95900726q0.54241943 0.61816406 0.8625488 1.5272713q0.3357544 0.90844345 0.38024902 1.9543743q0.10546875 2.482132 -1.0700073 3.8926678q-1.1599121 1.409872 -2.8927612 1.4834766q-1.7015991 0.072280884 -2.7461548 -1.3221455l0.051818848 1.2176495zm-0.22399902 -4.9011593q0.07366943 1.732811 0.5907593 2.4927979q0.8187256 1.2319908 2.14563 1.1756268q1.0771484 -0.045755386 1.8178711 -1.0155659q0.74072266 -0.9698105 0.66241455 -2.8118973q-0.080322266 -1.8889179 -0.868103 -2.7625198q-0.7878418 -0.8736038 -1.8649902 -0.82784843q-1.0615234 0.04509163 -1.8178711 1.0155659q-0.74072266 0.9698105 -0.66571045 2.733841z" fill-rule="nonzero"/><path fill="#000000" fill-opacity="0.0" d="m456.90955 89.13226l-71.18109 3.0236282l2.0472412 48.15748l71.18109 -3.0236206z" fill-rule="evenodd"/><path fill="#000000" d="m398.59564 118.55359l-1.5142822 0.064323425l-0.56741333 -13.347321l1.6391602 -0.069625854l0.20239258 4.7613297q0.99087524 -1.3401337 2.5987854 -1.4084396q0.88983154 -0.03779602 1.7012329 0.28743744q0.8114319 0.32522583 1.3544617 0.95900726q0.5423889 0.61816406 0.8625183 1.5272675q0.3357849 0.90844727 0.38024902 1.9543762q0.10549927 2.482132 -1.0700073 3.8926697q-1.1599426 1.4098663 -2.8927307 1.4834747q-1.7015991 0.072280884 -2.7461548 -1.3221436l0.05178833 1.2176437zm-0.22399902 -4.9011536q0.073638916 1.7328033 0.5907898 2.4927979q0.81866455 1.231987 2.1455994 1.175621q1.0771484 -0.04575348 1.8178711 -1.015564q0.7407532 -0.9698105 0.66244507 -2.8118973q-0.080322266 -1.888916 -0.86813354 -2.7625198q-0.7878113 -0.8736038 -1.8649597 -0.82785034q-1.061554 0.04509735 -1.8178711 1.0155716q-0.7407532 0.96980286 -0.66574097 2.733841z" fill-rule="nonzero"/><path fill="#000000" fill-opacity="0.0" d="m241.32031 128.169l-71.18111 3.0236206l2.0472412 48.157486l71.18111 -3.0236206z" fill-rule="evenodd"/><path fill="#000000" d="m187.76411 156.19966q-0.8885193 0.8040619 -1.7175751 1.1677094q-0.8141022 0.34735107 -1.7819824 0.3884735q-1.5923157 0.06762695 -2.4841003 -0.6764374q-0.89178467 -0.7440796 -0.94288635 -1.9461212q-0.030517578 -0.7180939 0.27275085 -1.3096161q0.3026123 -0.6071472 0.8031769 -0.97247314q0.5155029 -0.3815918 1.1631927 -0.59677124q0.46302795 -0.14479065 1.4412079 -0.31144714q1.9726257 -0.31837463 2.89534 -0.6859894q0.0010223389 -0.3441162 -0.0023040771 -0.42216492q-0.04246521 -0.99909973 -0.52871704 -1.4006958q-0.6476593 -0.51986694 -1.8965454 -0.46681213q-1.1551971 0.049072266 -1.6843262 0.47816467q-0.529129 0.4290924 -0.7513733 1.4550781l-1.617218 -0.1502533q0.17541504 -1.0239868 0.64842224 -1.6696472q0.47233582 -0.66127014 1.4100037 -1.045166q0.93766785 -0.38388062 2.170929 -0.43626404q1.2488708 -0.05305481 2.026413 0.21105957q0.7924957 0.24783325 1.1707916 0.68530273q0.3932495 0.42118835 0.5622711 1.0864868q0.09597778 0.41818237 0.1424408 1.5109406l0.09289551 2.1855316q0.09689331 2.27919 0.23205566 2.883377q0.13449097 0.5885773 0.45500183 1.13797l-1.7015991 0.072280884q-0.28727722 -0.503891 -0.37826538 -1.1725159zm-0.29644775 -3.6625824q-0.87390137 0.41246033 -2.642929 0.7378235q-1.008728 0.18360901 -1.4222717 0.38883972q-0.41352844 0.20523071 -0.63308716 0.55862427q-0.20394897 0.35272217 -0.18537903 0.78982544q0.027877808 0.6556549 0.54600525 1.0715485q0.5181427 0.4158783 1.470398 0.37542725q0.93666077 -0.039779663 1.653122 -0.47683716q0.73139954 -0.45332336 1.0443115 -1.1860199q0.24150085 -0.57325745 0.19570923 -1.6504059l-0.025878906 -0.6088257z" fill-rule="nonzero"/><path fill="#000000" fill-opacity="0.0" d="m274.60974 314.9816l0 0c0 -26.405304 23.619629 -47.811035 52.75592 -47.811035l0 0c29.136292 0 52.75589 21.405731 52.75589 47.811035l0 0c0 26.405304 -23.619598 47.811005 -52.75589 47.811005l0 0c-29.136292 0 -52.75592 -21.4057 -52.75592 -47.811005z" fill-rule="evenodd"/><path stroke="#000000" stroke-width="1.0" stroke-linejoin="round" stroke-linecap="butt" d="m274.60974 314.9816l0 0c0 -26.405304 23.619629 -47.811035 52.75592 -47.811035l0 0c29.136292 0 52.75589 21.405731 52.75589 47.811035l0 0c0 26.405304 -23.619598 47.811005 -52.75589 47.811005l0 0c-29.136292 0 -52.75592 -21.4057 -52.75592 -47.811005z" fill-rule="evenodd"/><path fill="#000000" fill-opacity="0.0" d="m291.77948 285.84174l64.66141 -2.582672l2.015747 50.582672l-64.66141 2.582672z" fill-rule="evenodd"/><path fill="#000000" d="m315.28452 331.019l-0.32351685 -8.118561q-0.61901855 0.9473572 -1.781311 1.6036377q-1.1466675 0.65563965 -2.473755 0.7086487q-2.9507751 0.11785889 -5.1836243 -2.1542053q-2.2172546 -2.272705 -2.38089 -6.3788147q-0.09954834 -2.4980164 0.68011475 -4.515106q0.7952881 -2.0177307 2.394165 -3.0980225q1.6138611 -1.0965271 3.5810547 -1.1751099q3.0756836 -0.12283325 4.9431763 2.3983765l-0.08834839 -2.21698l2.5292358 -0.10101318l0.91397095 22.934906l-2.8102722 0.11224365zm-9.250427 -14.345367q0.12756348 3.200592 1.5343018 4.755066q1.4061584 1.5388489 3.279663 1.4640198q1.7954407 -0.07171631 3.0309448 -1.6379089q1.2348633 -1.5817871 1.1110535 -4.68869q-0.13189697 -3.3098755 -1.5723877 -4.925537q-1.4248657 -1.6163025 -3.2671509 -1.5427246q-1.8266602 0.07296753 -3.0446777 1.6853638q-1.2030334 1.5961609 -1.0717468 4.8904114zm15.204407 1.6914062l2.7953491 -0.48693848q0.5791626 2.3693848 1.7767944 3.3849182q1.2126465 0.9992676 2.8831787 0.93255615q1.9827881 -0.07922363 3.2863464 -1.5073853q1.3191528 -1.428772 1.2382507 -3.4584045q-0.07714844 -1.9359741 -1.3915405 -3.1344604q-1.3150024 -1.2141113 -3.266571 -1.1361694q-0.79623413 0.031799316 -1.9703369 0.39144897l0.21392822 -2.479248q0.2822876 0.019989014 0.45401 0.013122559q1.7954407 -0.07171631 3.194458 -1.0658264q1.3990479 -0.9941406 1.3212585 -2.9457092q-0.061584473 -1.5456543 -1.1480713 -2.5186768q-1.0864868 -0.973053 -2.7414246 -0.9069519q-1.6393127 0.06549072 -2.6911316 1.1395569q-1.0517883 1.0740967 -1.2819214 3.1474304l-2.8301697 -0.38735962q0.4025879 -2.846466 2.1676636 -4.465088q1.7644653 -1.6342163 4.4810486 -1.7427063q1.8735046 -0.0748291 3.482727 0.67404175q1.6085815 0.73324585 2.4914246 2.0897217q0.898468 1.3558655 0.96066284 2.9171143q0.05911255 1.4831848 -0.68859863 2.732788q-0.7477112 1.2495728 -2.2803345 2.0301208q2.0482788 0.38729858 3.2315063 1.8256226q1.1825867 1.4226685 1.270935 3.639679q0.1194458 2.9976196 -1.9829407 5.177002q-2.1029968 2.1637878 -5.444092 2.2972412q-3.013214 0.12033081 -5.0831604 -1.5953064q-2.0543518 -1.7162476 -2.4492493 -4.562134z" fill-rule="nonzero"/><path fill="#000000" fill-opacity="0.0" d="m185.65512 255.07784l88.566925 56.18898" fill-rule="evenodd"/><path stroke="#000000" stroke-width="1.0" stroke-linejoin="round" stroke-linecap="butt" d="m185.65512 255.07784l83.50052 52.974716" fill-rule="evenodd"/><path fill="#000000" stroke="#000000" stroke-width="1.0" stroke-linecap="butt" d="m268.27078 309.4473l4.7168274 1.036377l-2.947113 -3.8258362z" fill-rule="evenodd"/><path fill="#000000" fill-opacity="0.0" d="m477.19946 309.84253l0 0c0 -26.405304 23.61258 -47.811035 52.740173 -47.811035l0 0c29.127563 0 52.740173 21.405731 52.740173 47.811035l0 0c0 26.405304 -23.61261 47.811005 -52.740173 47.811005l0 0c-29.127594 0 -52.740173 -21.4057 -52.740173 -47.811005z" fill-rule="evenodd"/><path stroke="#000000" stroke-width="1.0" stroke-linejoin="round" stroke-linecap="butt" d="m477.19946 309.84253l0 0c0 -26.405304 23.61258 -47.811035 52.740173 -47.811035l0 0c29.127563 0 52.740173 21.405731 52.740173 47.811035l0 0c0 26.405304 -23.61261 47.811005 -52.740173 47.811005l0 0c-29.127594 0 -52.740173 -21.4057 -52.740173 -47.811005z" fill-rule="evenodd"/><path fill="#000000" fill-opacity="0.0" d="m497.59317 278.91602l64.6929 0l0 50.614166l-64.6929 0z" fill-rule="evenodd"/><path fill="#000000" d="m519.2807 324.9954l0 -8.125q-0.65625 0.921875 -1.84375 1.53125q-1.171875 0.609375 -2.5 0.609375q-2.9531555 0 -5.0937805 -2.359375q-2.125 -2.359375 -2.125 -6.46875q0 -2.5 0.859375 -4.484375q0.875 -1.984375 2.515625 -3.0q1.6562805 -1.03125 3.6250305 -1.03125q3.078125 0 4.84375 2.59375l0 -2.21875l2.53125 0l0 22.953125l-2.8125 0zm-8.6719055 -14.703125q0 3.203125 1.34375 4.8125q1.3437805 1.59375 3.2187805 1.59375q1.796875 0 3.09375 -1.515625q1.296875 -1.53125 1.296875 -4.640625q0 -3.3125 -1.375 -4.984375q-1.359375 -1.671875 -3.203125 -1.671875q-1.828125 0 -3.1094055 1.5625q-1.265625 1.546875 -1.265625 4.84375zm24.12503 8.34375l0 -5.484375l-9.9375 0l0 -2.578125l10.453125 -14.84375l2.296875 0l0 14.84375l3.09375 0l0 2.578125l-3.09375 0l0 5.484375l-2.8125 0zm0 -8.0625l0 -10.328125l-7.171875 10.328125l7.171875 0z" fill-rule="nonzero"/><path fill="#000000" fill-opacity="0.0" d="m381.57742 311.25986l95.62204 -1.4173279" fill-rule="evenodd"/><path stroke="#000000" stroke-width="1.0" stroke-linejoin="round" stroke-linecap="butt" d="m381.57742 311.25986l89.62271 -1.3283997" fill-rule="evenodd"/><path fill="#000000" stroke="#000000" stroke-width="1.0" stroke-linecap="butt" d="m471.2246 311.583l4.5131226 -1.718811l-4.5620728 -1.5843201z" fill-rule="evenodd"/><path fill="#000000" fill-opacity="0.0" d="m463.22583 267.17163l-71.18112 3.0236206l2.0472717 48.1575l71.18109 -3.0236511z" fill-rule="evenodd"/><path fill="#000000" d="m404.9119 296.59296l-1.5142517 0.064331055l-0.56741333 -13.347321l1.6391296 -0.06964111l0.2024231 4.761322q0.9908447 -1.3401184 2.5987854 -1.4084167q0.889801 -0.03781128 1.7012329 0.28741455q0.8114319 0.32525635 1.3544617 0.9590149q0.5423584 0.61816406 0.8625183 1.5272827q0.3357544 0.90844727 0.3802185 1.9543762q0.105529785 2.4821167 -1.0700073 3.8926697q-1.1599121 1.4098511 -2.8927307 1.4834595q-1.7015686 0.07229614 -2.7461243 -1.3221436l0.051757812 1.2176514zm-0.22399902 -4.9011536q0.07366943 1.7328186 0.5907898 2.4927979q0.81869507 1.2319946 2.14563 1.1756287q1.0771484 -0.04574585 1.8178711 -1.015564q0.74072266 -0.9698181 0.66241455 -2.8118896q-0.08029175 -1.888916 -0.868103 -2.7625427q-0.7878113 -0.8735962 -1.8649902 -0.82785034q-1.0615234 0.04510498 -1.8178711 1.015564q-0.74072266 0.9698181 -0.66574097 2.7338562z" fill-rule="nonzero"/><path fill="#000000" fill-opacity="0.0" d="m281.00797 240.68344l-71.18109 3.0236206l2.0472412 48.1575l71.18109 -3.0236206z" fill-rule="evenodd"/><path fill="#000000" d="m227.45178 268.7141q-0.88853455 0.80404663 -1.7175751 1.1676941q-0.81411743 0.34735107 -1.7819824 0.38845825q-1.5923157 0.06765747 -2.4841003 -0.6764221q-0.89178467 -0.7440796 -0.94288635 -1.946106q-0.030532837 -0.71810913 0.27275085 -1.3096313q0.3026123 -0.6071472 0.8031616 -0.97247314q0.5155182 -0.3815918 1.163208 -0.59677124q0.4630127 -0.14477539 1.4411926 -0.3114624q1.972641 -0.31835938 2.8953552 -0.6859741q0.0010070801 -0.3441162 -0.0023040771 -0.42214966q-0.04248047 -0.999115 -0.52871704 -1.4007263q-0.64767456 -0.5198364 -1.8965454 -0.46679688q-1.1552124 0.049072266 -1.6843262 0.47817993q-0.529129 0.42907715 -0.75138855 1.4550476l-1.617218 -0.15023804q0.1754303 -1.0239868 0.64842224 -1.6696472q0.47235107 -0.6612549 1.4100037 -1.045166q0.93766785 -0.38388062 2.170929 -0.4362793q1.2488861 -0.05303955 2.0264282 0.21109009q0.7924957 0.24783325 1.1707916 0.68530273q0.39323425 0.4211731 0.5622711 1.0864868q0.09597778 0.41818237 0.14242554 1.5109253l0.09291077 2.1855469q0.09689331 2.2791748 0.23205566 2.8833618q0.13449097 0.588562 0.45498657 1.13797l-1.7015839 0.072265625q-0.28729248 -0.50387573 -0.37826538 -1.1724854zm-0.296463 -3.6625977q-0.8738861 0.41244507 -2.6429138 0.7378235q-1.0087433 0.18359375 -1.4222717 0.38882446q-0.41352844 0.20526123 -0.63308716 0.55862427q-0.20396423 0.35272217 -0.18537903 0.78982544q0.027877808 0.65567017 0.54600525 1.0715637q0.51812744 0.41589355 1.470398 0.37542725q0.93666077 -0.039794922 1.653122 -0.47683716q0.73139954 -0.4533081 1.0443115 -1.1860046q0.24150085 -0.5732727 0.19570923 -1.6504211l-0.025894165 -0.6088257z" fill-rule="nonzero"/><path fill="#000000" fill-opacity="0.0" d="m498.46158 339.49646l-120.188995 -1.5118103" fill-rule="evenodd"/><path stroke="#000000" stroke-width="1.0" stroke-linejoin="round" stroke-linecap="butt" d="m498.46158 339.49646l-114.18948 -1.4363708" fill-rule="evenodd"/><path fill="#000000" stroke="#000000" stroke-width="1.0" stroke-linecap="butt" d="m384.2929 336.4085l-4.5585327 1.5945129l4.516968 1.7086792z" fill-rule="evenodd"/><path fill="#000000" fill-opacity="0.0" d="m475.15234 329.53122l-71.18112 3.0236206l2.0472412 48.15747l71.18112 -3.0236206z" fill-rule="evenodd"/><path fill="#000000" d="m421.59613 357.56186q-0.8885193 0.80407715 -1.7175598 1.1676941q-0.81411743 0.3473816 -1.7819824 0.38848877q-1.5923157 0.06762695 -2.4841003 -0.6764221q-0.89178467 -0.7440796 -0.9429016 -1.9461365q-0.030517578 -0.7180786 0.2727661 -1.3096313q0.3026123 -0.6071167 0.8031616 -0.9724426q0.5155029 -0.3815918 1.163208 -0.59677124q0.4630127 -0.14480591 1.4411926 -0.3114624q1.9726257 -0.31835938 2.8953552 -0.68600464q0.0010070801 -0.3440857 -0.002319336 -0.42214966q-0.04248047 -0.9990845 -0.52871704 -1.4006958q-0.64767456 -0.51986694 -1.8965454 -0.46679688q-1.1551819 0.049072266 -1.6843262 0.4781494q-0.52911377 0.42910767 -0.7513733 1.4550781l-1.617218 -0.15023804q0.17541504 -1.0239868 0.648407 -1.6696472q0.47235107 -0.6612854 1.4100342 -1.045166q0.9376526 -0.38388062 2.170929 -0.4362793q1.2488708 -0.05303955 2.0263977 0.21105957q0.792511 0.24783325 1.1708069 0.68530273q0.393219 0.4212036 0.56225586 1.0864868q0.09597778 0.41818237 0.14242554 1.5109558l0.092926025 2.1855164q0.09689331 2.2792053 0.23205566 2.8833923q0.13449097 0.588562 0.45498657 1.13797l-1.7015991 0.072265625q-0.28729248 -0.50387573 -0.37826538 -1.1725159zm-0.29644775 -3.6625671q-0.87390137 0.41244507 -2.6429138 0.7378235q-1.0087585 0.18359375 -1.4222717 0.38882446q-0.4135437 0.20523071 -0.63308716 0.55862427q-0.20397949 0.35272217 -0.18539429 0.78982544q0.027893066 0.65567017 0.5460205 1.0715637q0.51812744 0.41586304 1.470398 0.37542725q0.9366455 -0.039794922 1.6531067 -0.47683716q0.7314148 -0.45333862 1.0443115 -1.1860352q0.24151611 -0.5732422 0.19570923 -1.6503906l-0.025878906 -0.6088257z" fill-rule="nonzero"/><path fill="#000000" fill-opacity="0.0" d="m485.7034 309.84253l0 0c0 -23.161194 19.502075 -41.93701 43.55905 -41.93701l0 0c11.552612 0 22.632019 4.418335 30.800903 12.283051c8.168945 7.8647156 12.758179 18.531555 12.758179 29.653961l0 0c0 23.161163 -19.502075 41.93701 -43.559082 41.93701l0 0c-24.056976 0 -43.55905 -18.775848 -43.55905 -41.93701z" fill-rule="evenodd"/><path stroke="#000000" stroke-width="1.0" stroke-linejoin="round" stroke-linecap="butt" d="m485.7034 309.84253l0 0c0 -23.161194 19.502075 -41.93701 43.55905 -41.93701l0 0c11.552612 0 22.632019 4.418335 30.800903 12.283051c8.168945 7.8647156 12.758179 18.531555 12.758179 29.653961l0 0c0 23.161163 -19.502075 41.93701 -43.559082 41.93701l0 0c-24.056976 0 -43.55905 -18.775848 -43.55905 -41.93701z" fill-rule="evenodd"/></g></svg>