<svg version="1.1" viewBox="0.0 0.0 960.0 720.0" fill="none" stroke="none" stroke-linecap="square" stroke-miterlimit="10" xmlns:xlink="http://www.w3.org/1999/xlink" xmlns="http://www.w3.org/2000/svg"><clipPath id="p.0"><path d="m0 0l960.0 0l0 720.0l-960.0 0l0 -720.0z" clip-rule="nonzero"/></clipPath><g clip-path="url(#p.0)"><path fill="#000000" fill-opacity="0.0" d="m0 0l960.0 0l0 720.0l-960.0 0z" fill-rule="evenodd"/><path fill="#000000" fill-opacity="0.0" d="m104.062996 340.31235l0 0c0 -26.405304 23.612572 -47.811035 52.74015 -47.811035l0 0c29.127594 0 52.740158 21.405731 52.740158 47.811035l0 0c0 26.405273 -23.612564 47.811005 -52.740158 47.811005l0 0c-29.127579 0 -52.74015 -21.405731 -52.74015 -47.811005z" fill-rule="evenodd"/><path stroke="#000000" stroke-width="1.0" stroke-linejoin="round" stroke-linecap="butt" d="m104.062996 340.31235l0 0c0 -26.405304 23.612572 -47.811035 52.74015 -47.811035l0 0c29.127594 0 52.740158 21.405731 52.740158 47.811035l0 0c0 26.405273 -23.612564 47.811005 -52.740158 47.811005l0 0c-29.127579 0 -52.74015 -21.405731 -52.74015 -47.811005z" fill-rule="evenodd"/><path fill="#000000" fill-opacity="0.0" d="m124.456696 309.38583l64.69292 0l0 50.614166l-64.69292 0z" fill-rule="evenodd"/><path fill="#000000" d="m146.1442 355.4652l0 -8.125q-0.65625 0.921875 -1.84375 1.53125q-1.171875 0.609375 -2.5 0.609375q-2.953125 0 -5.09375 -2.359375q-2.125 -2.359375 -2.125 -6.46875q0 -2.5 0.859375 -4.484375q0.875 -1.984375 2.515625 -3.0q1.65625 -1.03125 3.625 -1.03125q3.078125 0 4.84375 2.59375l0 -2.21875l2.53125 0l0 22.953125l-2.8125 0zm-8.671875 -14.703125q0 3.203125 1.34375 4.8125q1.34375 1.59375 3.21875 1.59375q1.796875 0 3.09375 -1.515625q1.296875 -1.53125 1.296875 -4.640625q0 -3.3125 -1.375 -4.984375q-1.359375 -1.671875 -3.203125 -1.671875q-1.828125 0 -3.109375 1.5625q-1.265625 1.546875 -1.265625 4.84375zm15.109375 -2.953125q0 -4.0625 0.828125 -6.53125q0.84375 -2.484375 2.484375 -3.828125q1.65625 -1.34375 4.15625 -1.34375q1.84375 0 3.234375 0.75q1.390625 0.734375 2.296875 2.140625q0.90625 1.390625 1.421875 3.40625q0.515625 2.0 0.515625 5.40625q0 4.03125 -0.828125 6.515625q-0.828125 2.46875 -2.484375 3.828125q-1.640625 1.34375 -4.15625 1.34375q-3.3125 0 -5.203125 -2.375q-2.265625 -2.859375 -2.265625 -9.3125zm2.890625 0q0 5.640625 1.3125 7.515625q1.328125 1.859375 3.265625 1.859375q1.9375 0 3.25 -1.875q1.328125 -1.875 1.328125 -7.5q0 -5.65625 -1.328125 -7.515625q-1.3125 -1.859375 -3.28125 -1.859375q-1.9375 0 -3.09375 1.640625q-1.453125 2.09375 -1.453125 7.734375z" fill-rule="nonzero"/><path fill="#000000" fill-opacity="0.0" d="m8.440945 341.72964l95.622055 -1.4172974" fill-rule="evenodd"/><path stroke="#000000" stroke-width="1.0" stroke-linejoin="round" stroke-linecap="butt" d="m8.440945 341.72964l89.62271 -1.3283691" fill-rule="evenodd"/><path fill="#000000" stroke="#000000" stroke-width="1.0" stroke-linecap="butt" d="m98.08813 342.0528l4.5131226 -1.7187805l-4.5620804 -1.5843201z" fill-rule="evenodd"/><path fill="#000000" fill-opacity="0.0" d="m272.48114 244.52228l0 0c0 -26.405304 23.619629 -47.811035 52.75592 -47.811035l0 0c29.136261 0 52.75589 21.405731 52.75589 47.811035l0 0c0 26.405304 -23.619629 47.811005 -52.75589 47.811005l0 0c-29.136292 0 -52.75592 -21.4057 -52.75592 -47.811005z" fill-rule="evenodd"/><path stroke="#000000" stroke-width="1.0" stroke-linejoin="round" stroke-linecap="butt" d="m272.48114 244.52228l0 0c0 -26.405304 23.619629 -47.811035 52.75592 -47.811035l0 0c29.136261 0 52.75589 21.405731 52.75589 47.811035l0 0c0 26.405304 -23.619629 47.811005 -52.75589 47.811005l0 0c-29.136292 0 -52.75592 -21.4057 -52.75592 -47.811005z" fill-rule="evenodd"/><path fill="#000000" fill-opacity="0.0" d="m289.65085 215.38242l64.66144 -2.5826874l2.015747 50.582687l-64.66144 2.582672z" fill-rule="evenodd"/><path fill="#000000" d="m313.1559 260.5597l-0.32351685 -8.118546q-0.61901855 0.94732666 -1.781311 1.6036072q-1.146698 0.65567017 -2.473755 0.7086792q-2.9507751 0.11785889 -5.1836243 -2.1542206q-2.2172546 -2.2726898 -2.38089 -6.3788147q-0.09954834 -2.4980164 0.68011475 -4.515106q0.7952881 -2.0177307 2.394165 -3.0980225q1.6138611 -1.0965424 3.5810547 -1.1751099q3.075653 -0.12284851 4.9431763 2.3983765l-0.08834839 -2.21698l2.5292358 -0.10102844l0.91397095 22.934921l-2.8102722 0.11224365zm-9.250427 -14.345367q0.12753296 3.200592 1.5343018 4.7550507q1.4061584 1.5388641 3.279663 1.464035q1.7954407 -0.07171631 3.0309143 -1.6378937q1.2348633 -1.5818024 1.1110535 -4.6887054q-0.13189697 -3.3098755 -1.5723572 -4.9255524q-1.4248657 -1.6162872 -3.2671509 -1.5427094q-1.8266602 0.07296753 -3.0446777 1.6853638q-1.2030334 1.5961456 -1.0717468 4.8904114zm26.014893 7.311325l-2.8102722 0.11224365l-0.71362305 -17.907654q-0.9762573 1.0085144 -2.5925903 2.0426025q-1.6007385 1.0334473 -2.8929138 1.5698242l-0.10827637 -2.7165985q2.313324 -1.202652 4.0147095 -2.8499908q1.7013855 -1.6473389 2.376068 -3.159851l1.8110657 -0.07232666l0.9158325 22.98175z" fill-rule="nonzero"/><path fill="#000000" fill-opacity="0.0" d="m189.15044 292.50128l87.11812 -39.40158" fill-rule="evenodd"/><path stroke="#000000" stroke-width="1.0" stroke-linejoin="round" stroke-linecap="butt" d="m189.15042 292.50128l81.651245 -36.929047" fill-rule="evenodd"/><path fill="#000000" stroke="#000000" stroke-width="1.0" stroke-linecap="butt" d="m271.48233 257.0772l3.454193 -3.3750763l-4.8155212 0.36514282z" fill-rule="evenodd"/><path fill="#000000" fill-opacity="0.0" d="m475.07086 239.38321l0 0c0 -26.405304 23.61258 -47.811035 52.740173 -47.811035l0 0c29.127563 0 52.740173 21.405731 52.740173 47.811035l0 0c0 26.405304 -23.61261 47.811005 -52.740173 47.811005l0 0c-29.127594 0 -52.740173 -21.4057 -52.740173 -47.811005z" fill-rule="evenodd"/><path stroke="#000000" stroke-width="1.0" stroke-linejoin="round" stroke-linecap="butt" d="m475.07086 239.38321l0 0c0 -26.405304 23.61258 -47.811035 52.740173 -47.811035l0 0c29.127563 0 52.740173 21.405731 52.740173 47.811035l0 0c0 26.405304 -23.61261 47.811005 -52.740173 47.811005l0 0c-29.127594 0 -52.740173 -21.4057 -52.740173 -47.811005z" fill-rule="evenodd"/><path fill="#000000" fill-opacity="0.0" d="m495.46457 208.4567l64.6929 0l0 50.614166l-64.6929 0z" fill-rule="evenodd"/><path fill="#000000" d="m517.15204 254.53607l0 -8.125q-0.65625 0.921875 -1.84375 1.53125q-1.171875 0.609375 -2.5 0.609375q-2.9530945 0 -5.0937195 -2.359375q-2.125 -2.359375 -2.125 -6.46875q0 -2.5 0.859375 -4.484375q0.875 -1.984375 2.515625 -3.0q1.65625 -1.03125 3.6249695 -1.03125q3.078125 0 4.84375 2.59375l0 -2.21875l2.53125 0l0 22.953125l-2.8125 0zm-8.6718445 -14.703125q0 3.203125 1.34375 4.8125q1.34375 1.59375 3.2187195 1.59375q1.796875 0 3.09375 -1.515625q1.296875 -1.53125 1.296875 -4.640625q0 -3.3125 -1.375 -4.984375q-1.359375 -1.671875 -3.203125 -1.671875q-1.8280945 0 -3.1093445 1.5625q-1.265625 1.546875 -1.265625 4.84375zm29.890594 5.640625l0 2.703125l-15.140625 0q-0.03125 -1.015625 0.328125 -1.953125q0.578125 -1.546875 1.84375 -3.046875q1.28125 -1.5 3.6875 -3.46875q3.734375 -3.0625 5.046875 -4.84375q1.3125 -1.796875 1.3125 -3.390625q0 -1.671875 -1.203125 -2.8125q-1.1875 -1.15625 -3.109375 -1.15625q-2.03125 0 -3.25 1.21875q-1.21875 1.21875 -1.234375 3.375l-2.890625 -0.296875q0.296875 -3.234375 2.234375 -4.921875q1.9375 -1.703125 5.203125 -1.703125q3.296875 0 5.21875 1.828125q1.921875 1.828125 1.921875 4.53125q0 1.375 -0.5625 2.703125q-0.5625 1.328125 -1.875 2.796875q-1.296875 1.46875 -4.328125 4.03125q-2.53125 2.125 -3.25 2.890625q-0.71875 0.75 -1.1875 1.515625l11.234375 0z" fill-rule="nonzero"/><path fill="#000000" fill-opacity="0.0" d="m379.44882 240.80052l95.62204 -1.4173126" fill-rule="evenodd"/><path stroke="#000000" stroke-width="1.0" stroke-linejoin="round" stroke-linecap="butt" d="m379.44882 240.80052l89.62271 -1.3283844" fill-rule="evenodd"/><path fill="#000000" stroke="#000000" stroke-width="1.0" stroke-linecap="butt" d="m469.096 241.12367l4.5131226 -1.718811l-4.5620728 -1.5842896z" fill-rule="evenodd"/><path fill="#000000" fill-opacity="0.0" d="m483.5748 239.38321l0 0c0 -23.161179 19.502045 -41.93701 43.55905 -41.93701l0 0c11.552612 0 22.632019 4.41835 30.800903 12.283066c8.168945 7.8647156 12.758179 18.531555 12.758179 29.653946l0 0c0 23.161163 -19.502075 41.93701 -43.559082 41.93701l0 0c-24.057007 0 -43.55905 -18.775848 -43.55905 -41.93701z" fill-rule="evenodd"/><path stroke="#000000" stroke-width="1.0" stroke-linejoin="round" stroke-linecap="butt" d="m483.5748 239.38321l0 0c0 -23.161179 19.502045 -41.93701 43.55905 -41.93701l0 0c11.552612 0 22.632019 4.41835 30.800903 12.283066c8.168945 7.8647156 12.758179 18.531555 12.758179 29.653946l0 0c0 23.161163 -19.502075 41.93701 -43.559082 41.93701l0 0c-24.057007 0 -43.55905 -18.775848 -43.55905 -41.93701z" fill-rule="evenodd"/><path fill="#000000" fill-opacity="0.0" d="m527.81104 191.57217c0 -18.44217 14.397095 -37.610703 26.92517 -36.884354c12.528137 0.7263336 23.187195 21.34755 26.925232 42.33194c3.738037 20.98439 0.55511475 42.33194 1.1102295 42.33194" fill-rule="evenodd"/><path stroke="#000000" stroke-width="1.0" stroke-linejoin="round" stroke-linecap="butt" d="m527.81104 191.57217c0 -18.44217 14.397095 -37.610703 26.92517 -36.884354c12.528137 0.7263336 23.187195 21.34755 26.925232 42.33194c3.738037 20.98439 0.55511475 42.33194 1.1102295 42.33194" fill-rule="evenodd"/><path fill="#000000" d="m518.6772 184.37534l4.5668945 0l0 -7.1968536l9.13385 0l0 7.1968536l4.5669556 0l-9.13385 7.1968384z" fill-rule="evenodd"/><path stroke="#000000" stroke-width="1.0" stroke-linejoin="round" stroke-linecap="butt" d="m518.6772 184.37534l4.5668945 0l0 -7.1968536l9.13385 0l0 7.1968536l4.5669556 0l-9.13385 7.1968384z" fill-rule="evenodd"/><path fill="#000000" fill-opacity="0.0" d="m617.6851 119.04303l-71.18109 3.0236206l2.0472412 48.157486l71.18109 -3.0236359z" fill-rule="evenodd"/><path fill="#000000" d="m559.3712 148.46436l-1.5142822 0.064315796l-0.5673828 -13.347321l1.6391602 -0.069625854l0.20239258 4.761322q0.9908447 -1.3401337 2.598755 -1.408432q0.88983154 -0.03779602 1.7012329 0.2874298q0.8114624 0.3252411 1.3544922 0.9590149q0.5423584 0.61816406 0.8624878 1.5272675q0.33581543 0.90844727 0.38024902 1.9543762q0.105529785 2.482132 -1.0700073 3.8926697q-1.1599121 1.4098663 -2.8927002 1.4834747q-1.7015991 0.072280884 -2.7461548 -1.3221436l0.051757812 1.2176514zm-0.22399902 -4.901169q0.07366943 1.7328186 0.5908203 2.4927979q0.81866455 1.2319946 2.1455688 1.1756287q1.0771484 -0.04574585 1.8179321 -1.015564q0.74072266 -0.96980286 0.66241455 -2.8118896q-0.080322266 -1.888916 -0.86816406 -2.7625275q-0.78778076 -0.8735962 -1.8649292 -0.82785034q-1.0615845 0.04508972 -1.8178711 1.015564q-0.7407837 0.9698181 -0.6657715 2.733841z" fill-rule="nonzero"/><path fill="#000000" fill-opacity="0.0" d="m465.3505 208.17426l-71.18109 3.0236206l2.0472412 48.1575l71.18109 -3.0236511z" fill-rule="evenodd"/><path fill="#000000" d="m407.03656 237.59558l-1.5142517 0.064331055l-0.56741333 -13.347321l1.6391602 -0.069625854l0.20239258 4.761322q0.9908447 -1.3401337 2.5987854 -1.408432q0.88983154 -0.03779602 1.7012329 0.2874298q0.8114319 0.32522583 1.3544617 0.95899963q0.5423584 0.61816406 0.8625183 1.5272827q0.3357544 0.908432 0.3802185 1.9543762q0.105529785 2.482132 -1.0700073 3.8926544q-1.1599121 1.4098816 -2.8927002 1.48349q-1.7015991 0.072280884 -2.7461548 -1.3221588l0.051757812 1.2176514zm-0.2239685 -4.9011536q0.073638916 1.7328033 0.5907593 2.4927979q0.81869507 1.2319946 2.14563 1.1756287q1.0771484 -0.04576111 1.8178711 -1.015564q0.7407532 -0.9698181 0.66241455 -2.811905q-0.08029175 -1.888916 -0.868103 -2.7625122q-0.7878113 -0.87361145 -1.8649597 -0.82785034q-1.061554 0.04508972 -1.8179016 1.015564q-0.74072266 0.96980286 -0.66571045 2.733841z" fill-rule="nonzero"/><path fill="#000000" fill-opacity="0.0" d="m249.76126 247.21101l-71.18111 3.0236206l2.0472412 48.157486l71.18111 -3.0236206z" fill-rule="evenodd"/><path fill="#000000" d="m196.20506 275.24167q-0.88853455 0.80404663 -1.7175751 1.1676941q-0.81411743 0.34735107 -1.7819824 0.38845825q-1.5923157 0.06765747 -2.4841003 -0.6764221q-0.89178467 -0.7440796 -0.94288635 -1.946106q-0.030532837 -0.71810913 0.27275085 -1.3096313q0.3026123 -0.6071472 0.8031616 -0.97247314q0.5155182 -0.3815918 1.163208 -0.59677124q0.4630127 -0.14477539 1.4411926 -0.31143188q1.972641 -0.3183899 2.8953552 -0.68600464q0.0010070801 -0.3441162 -0.0023040771 -0.42214966q-0.04248047 -0.999115 -0.52871704 -1.4007263q-0.64767456 -0.5198364 -1.8965454 -0.46679688q-1.1552124 0.049072266 -1.6843262 0.47817993q-0.529129 0.42907715 -0.75138855 1.4550476l-1.617218 -0.15023804q0.1754303 -1.0239868 0.64842224 -1.6696472q0.47235107 -0.6612549 1.4100189 -1.045166q0.9376526 -0.38388062 2.170929 -0.4362793q1.2488708 -0.05303955 2.026413 0.21109009q0.7924957 0.24783325 1.1707916 0.68530273q0.39323425 0.4211731 0.5622711 1.0864868q0.09597778 0.41818237 0.14242554 1.5109253l0.09291077 2.1855469q0.09689331 2.2791748 0.23205566 2.8833618q0.13449097 0.588562 0.45498657 1.13797l-1.7015839 0.072265625q-0.28729248 -0.50387573 -0.37826538 -1.1724854zm-0.296463 -3.6625977q-0.8738861 0.41244507 -2.6429138 0.7378235q-1.0087433 0.18359375 -1.4222717 0.38885498q-0.41352844 0.20523071 -0.63308716 0.55859375q-0.20396423 0.35272217 -0.18537903 0.78985596q0.027877808 0.65563965 0.54600525 1.0715332q0.51812744 0.41589355 1.470398 0.37542725q0.93666077 -0.039794922 1.653122 -0.47683716q0.73139954 -0.4533081 1.0443115 -1.1860046q0.24150085 -0.5732727 0.19570923 -1.6504211l-0.025894165 -0.6088257z" fill-rule="nonzero"/><path fill="#000000" fill-opacity="0.0" d="m283.0507 434.0236l0 0c0 -26.405304 23.619629 -47.811035 52.75592 -47.811035l0 0c29.136261 0 52.75589 21.405731 52.75589 47.811035l0 0c0 26.405304 -23.619629 47.811005 -52.75589 47.811005l0 0c-29.136292 0 -52.75592 -21.4057 -52.75592 -47.811005z" fill-rule="evenodd"/><path stroke="#000000" stroke-width="1.0" stroke-linejoin="round" stroke-linecap="butt" d="m283.0507 434.0236l0 0c0 -26.405304 23.619629 -47.811035 52.75592 -47.811035l0 0c29.136261 0 52.75589 21.405731 52.75589 47.811035l0 0c0 26.405304 -23.619629 47.811005 -52.75589 47.811005l0 0c-29.136292 0 -52.75592 -21.4057 -52.75592 -47.811005z" fill-rule="evenodd"/><path fill="#000000" fill-opacity="0.0" d="m300.22043 404.88373l64.66141 -2.582672l2.015747 50.582672l-64.66141 2.582672z" fill-rule="evenodd"/><path fill="#000000" d="m323.72546 450.061l-0.32351685 -8.118561q-0.61901855 0.9473572 -1.781311 1.6036377q-1.1466675 0.65563965 -2.473755 0.7086487q-2.9507751 0.11785889 -5.1836243 -2.1542053q-2.2172546 -2.272705 -2.38089 -6.3788147q-0.09954834 -2.4980164 0.68011475 -4.515106q0.7952881 -2.0177307 2.394165 -3.0980225q1.6138611 -1.0965271 3.5810547 -1.1751099q3.0756836 -0.12283325 4.9431763 2.3983765l-0.08834839 -2.21698l2.5292358 -0.10101318l0.91397095 22.934906l-2.8102722 0.11224365zm-9.250427 -14.345367q0.12753296 3.200592 1.5343018 4.755066q1.4061584 1.5388489 3.279663 1.4640198q1.7954407 -0.07171631 3.0309143 -1.6379089q1.2348938 -1.5817871 1.111084 -4.68869q-0.13192749 -3.3098755 -1.5723877 -4.925537q-1.4248657 -1.6163025 -3.2671509 -1.5427246q-1.8266602 0.07296753 -3.0446777 1.6853638q-1.2030334 1.5961609 -1.0717468 4.8904114zm15.204407 1.6914062l2.7953186 -0.48693848q0.5791931 2.3694153 1.776825 3.3849182q1.2126465 0.9992676 2.8831787 0.93255615q1.9827881 -0.079193115 3.286316 -1.5073547q1.3191833 -1.4288025 1.2382812 -3.458435q-0.07714844 -1.9359741 -1.3915405 -3.1344604q-1.3150024 -1.2141113 -3.266571 -1.1361694q-0.79623413 0.031799316 -1.9703674 0.39144897l0.21395874 -2.479248q0.28225708 0.019989014 0.45401 0.013122559q1.7954407 -0.07171631 3.194458 -1.0658264q1.3990479 -0.9941406 1.3212585 -2.9457092q-0.061584473 -1.5456543 -1.1480713 -2.5186768q-1.0864868 -0.973053 -2.7414246 -0.9069519q-1.6393127 0.06549072 -2.6911316 1.1395569q-1.0518188 1.0740967 -1.2819214 3.1474304l-2.8301697 -0.38735962q0.4025879 -2.846466 2.1676636 -4.4650574q1.7644653 -1.6342468 4.4810486 -1.7427368q1.8735046 -0.0748291 3.482727 0.67404175q1.6085815 0.73324585 2.4914246 2.0897217q0.898468 1.3558655 0.96066284 2.9171143q0.05911255 1.4832153 -0.68859863 2.732788q-0.7477112 1.2495728 -2.2803345 2.0301208q2.0482788 0.3873291 3.2315063 1.8256226q1.1825867 1.4226685 1.270935 3.639679q0.1194458 2.9976196 -1.9829407 5.177002q-2.1029968 2.1637878 -5.444092 2.2972412q-3.013214 0.12033081 -5.083191 -1.5952759q-2.0543213 -1.7162781 -2.4492188 -4.5621643z" fill-rule="nonzero"/><path fill="#000000" fill-opacity="0.0" d="m194.09607 374.11984l88.566925 56.188965" fill-rule="evenodd"/><path stroke="#000000" stroke-width="1.0" stroke-linejoin="round" stroke-linecap="butt" d="m194.09607 374.11984l83.50052 52.97473" fill-rule="evenodd"/><path fill="#000000" stroke="#000000" stroke-width="1.0" stroke-linecap="butt" d="m276.71173 428.4893l4.7168274 1.036377l-2.9471436 -3.8258362z" fill-rule="evenodd"/><path fill="#000000" fill-opacity="0.0" d="m485.6404 428.88452l0 0c0 -26.405304 23.61258 -47.811035 52.740143 -47.811035l0 0c29.127625 0 52.740173 21.405731 52.740173 47.811035l0 0c0 26.405304 -23.612549 47.811005 -52.740173 47.811005l0 0c-29.127563 0 -52.740143 -21.4057 -52.740143 -47.811005z" fill-rule="evenodd"/><path stroke="#000000" stroke-width="1.0" stroke-linejoin="round" stroke-linecap="butt" d="m485.6404 428.88452l0 0c0 -26.405304 23.61258 -47.811035 52.740143 -47.811035l0 0c29.127625 0 52.740173 21.405731 52.740173 47.811035l0 0c0 26.405304 -23.612549 47.811005 -52.740173 47.811005l0 0c-29.127563 0 -52.740143 -21.4057 -52.740143 -47.811005z" fill-rule="evenodd"/><path fill="#000000" fill-opacity="0.0" d="m506.03412 397.958l64.69293 0l0 50.614166l-64.69293 0z" fill-rule="evenodd"/><path fill="#000000" d="m527.7216 444.03738l0 -8.125q-0.65625 0.921875 -1.84375 1.53125q-1.171875 0.609375 -2.5 0.609375q-2.953125 0 -5.09375 -2.359375q-2.125 -2.359375 -2.125 -6.46875q0 -2.5 0.859375 -4.484375q0.875 -1.984375 2.515625 -3.0q1.65625 -1.03125 3.625 -1.03125q3.078125 0 4.84375 2.59375l0 -2.21875l2.53125 0l0 22.953125l-2.8125 0zm-8.671875 -14.703125q0 3.203125 1.34375 4.8125q1.34375 1.59375 3.21875 1.59375q1.796875 0 3.09375 -1.515625q1.296875 -1.53125 1.296875 -4.640625q0 -3.3125 -1.375 -4.984375q-1.359375 -1.671875 -3.203125 -1.671875q-1.828125 0 -3.109375 1.5625q-1.265625 1.546875 -1.265625 4.84375zm24.125 8.34375l0 -5.484375l-9.9375 0l0 -2.578125l10.453125 -14.84375l2.296875 0l0 14.84375l3.09375 0l0 2.578125l-3.09375 0l0 5.484375l-2.8125 0zm0 -8.0625l0 -10.328125l-7.171875 10.328125l7.171875 0z" fill-rule="nonzero"/><path fill="#000000" fill-opacity="0.0" d="m390.01837 430.30185l95.62204 -1.4173279" fill-rule="evenodd"/><path stroke="#000000" stroke-width="1.0" stroke-linejoin="round" stroke-linecap="butt" d="m390.01837 430.30185l89.62271 -1.3284302" fill-rule="evenodd"/><path fill="#000000" stroke="#000000" stroke-width="1.0" stroke-linecap="butt" d="m479.66556 430.625l4.5131226 -1.718811l-4.5620728 -1.5842896z" fill-rule="evenodd"/><path fill="#000000" fill-opacity="0.0" d="m471.66678 386.21362l-71.18112 3.0236206l2.0472412 48.1575l71.18112 -3.0236206z" fill-rule="evenodd"/><path fill="#000000" d="m413.35284 415.63495l-1.5142517 0.064331055l-0.56741333 -13.347321l1.6391296 -0.06964111l0.2024231 4.7613525q0.9908447 -1.3401489 2.5987854 -1.4084473q0.889801 -0.03781128 1.7012329 0.28744507q0.8114319 0.32522583 1.3544617 0.9589844q0.5423584 0.61816406 0.8625183 1.5272827q0.3357544 0.90844727 0.3802185 1.9543762q0.105529785 2.4821167 -1.0700073 3.8926697q-1.1599121 1.4098511 -2.8927307 1.4834595q-1.7015991 0.07229614 -2.7461243 -1.3221436l0.051757812 1.2176514zm-0.22399902 -4.9011536q0.07366943 1.7328186 0.5907898 2.4927979q0.81869507 1.2319946 2.14563 1.1756287q1.0771484 -0.04574585 1.8178711 -1.015564q0.74072266 -0.9698181 0.66241455 -2.8118896q-0.08029175 -1.888916 -0.868103 -2.7625427q-0.7878113 -0.8735962 -1.8649902 -0.8278198q-1.0615234 0.045074463 -1.8178711 1.015564q-0.74072266 0.9697876 -0.66574097 2.7338257z" fill-rule="nonzero"/><path fill="#000000" fill-opacity="0.0" d="m289.4489 359.72543l-71.18109 3.0236206l2.0472412 48.1575l71.18109 -3.0236206z" fill-rule="evenodd"/><path fill="#000000" d="m235.89273 387.7561q-0.88853455 0.80404663 -1.7175903 1.1676941q-0.8141022 0.34735107 -1.7819824 0.38845825q-1.5923157 0.06765747 -2.484085 -0.6764221q-0.89178467 -0.7440796 -0.94288635 -1.946106q-0.030532837 -0.71810913 0.2727356 -1.3096313q0.3026123 -0.6071472 0.8031769 -0.97247314q0.5155029 -0.3815918 1.163208 -0.59677124q0.4630127 -0.14477539 1.4411926 -0.31143188q1.972641 -0.3183899 2.8953552 -0.68600464q0.0010070801 -0.3441162 -0.0023040771 -0.42214966q-0.04248047 -0.999115 -0.5287323 -1.4006958q-0.6476593 -0.51986694 -1.8965302 -0.4668274q-1.1552124 0.049072266 -1.6843414 0.47817993q-0.529129 0.42907715 -0.7513733 1.4550781l-1.617218 -0.15026855q0.17541504 -1.0239868 0.64842224 -1.6696472q0.47233582 -0.6612549 1.4100037 -1.045166q0.93766785 -0.38388062 2.170929 -0.4362793q1.2488708 -0.05303955 2.0264282 0.21109009q0.79248047 0.24783325 1.1707764 0.68530273q0.3932495 0.4211731 0.5622864 1.0864868q0.09597778 0.41818237 0.14242554 1.5109253l0.09291077 2.1855469q0.09689331 2.2791748 0.23205566 2.8833618q0.13449097 0.588562 0.45498657 1.13797l-1.7015839 0.072265625q-0.28729248 -0.50387573 -0.37826538 -1.1724854zm-0.296463 -3.6625977q-0.8738861 0.41244507 -2.6429138 0.7378235q-1.0087433 0.18359375 -1.4222717 0.38885498q-0.41352844 0.20523071 -0.6331024 0.55859375q-0.20394897 0.35272217 -0.18536377 0.78985596q0.027877808 0.65563965 0.54600525 1.0715332q0.51812744 0.41589355 1.470398 0.37542725q0.9366455 -0.039794922 1.6531067 -0.47683716q0.7314148 -0.4533081 1.0443268 -1.1860046q0.2414856 -0.5732727 0.19569397 -1.6504211l-0.025878906 -0.6088257z" fill-rule="nonzero"/><path fill="#000000" fill-opacity="0.0" d="m506.9025 458.53845l-120.188965 -1.5118103" fill-rule="evenodd"/><path stroke="#000000" stroke-width="1.0" stroke-linejoin="round" stroke-linecap="butt" d="m506.90253 458.53848l-114.18948 -1.4363708" fill-rule="evenodd"/><path fill="#000000" stroke="#000000" stroke-width="1.0" stroke-linecap="butt" d="m392.73386 455.45053l-4.5585327 1.5945129l4.516968 1.7086792z" fill-rule="evenodd"/><path fill="#000000" fill-opacity="0.0" d="m483.5933 448.5732l-71.18112 3.0236206l2.0472412 48.15747l71.18112 -3.0236206z" fill-rule="evenodd"/><path fill="#000000" d="m430.03708 476.60388q-0.8885193 0.80404663 -1.7175903 1.1676941q-0.8140869 0.34735107 -1.7819824 0.38845825q-1.5923157 0.06765747 -2.4840698 -0.6764221q-0.89178467 -0.7440796 -0.9429016 -1.946106q-0.030517578 -0.71810913 0.2727661 -1.3096313q0.3025818 -0.6071472 0.8031616 -0.97247314q0.5155029 -0.3815918 1.163208 -0.59677124q0.4630127 -0.14477539 1.4411926 -0.3114624q1.9726257 -0.31835938 2.8953552 -0.6859741q0.0010070801 -0.3441162 -0.002319336 -0.42218018q-0.04248047 -0.9990845 -0.52871704 -1.4006958q-0.64767456 -0.5198364 -1.8965454 -0.46679688q-1.1552124 0.049072266 -1.6843262 0.4781494q-0.5291443 0.42910767 -0.7513733 1.4550781l-1.617218 -0.15023804q0.17541504 -1.0239868 0.648407 -1.6696472q0.47235107 -0.6612854 1.4100037 -1.045166q0.9376831 -0.38388062 2.170929 -0.4362793q1.2489014 -0.05303955 2.0264282 0.21105957q0.79248047 0.24786377 1.1707764 0.68530273q0.3932495 0.4212036 0.5622864 1.0865173q0.09597778 0.41815186 0.14242554 1.5109253l0.092926025 2.1855164q0.09689331 2.2792053 0.23205566 2.8833923q0.13449097 0.588562 0.45498657 1.13797l-1.7015991 0.072265625q-0.28729248 -0.50387573 -0.37826538 -1.1724854zm-0.29644775 -3.6625977q-0.87390137 0.41244507 -2.6429138 0.7378235q-1.0087585 0.18359375 -1.4222717 0.38882446q-0.4135437 0.20523071 -0.6331177 0.55862427q-0.20394897 0.35272217 -0.18536377 0.78982544q0.027893066 0.65567017 0.5460205 1.0715637q0.51812744 0.41586304 1.470398 0.37542725q0.9366455 -0.039794922 1.6531067 -0.47683716q0.7314148 -0.45333862 1.0443115 -1.1860046q0.2414856 -0.5732727 0.19570923 -1.6504211l-0.025878906 -0.6088257z" fill-rule="nonzero"/><path fill="#000000" fill-opacity="0.0" d="m494.14435 428.88452l0 0c0 -23.161163 19.502075 -41.93701 43.559082 -41.93701l0 0c11.552551 0 22.631958 4.418335 30.800903 12.283051c8.168884 7.8647156 12.758118 18.531555 12.758118 29.653961l0 0c0 23.161163 -19.502014 41.93701 -43.55902 41.93701l0 0c-24.057007 0 -43.559082 -18.775848 -43.559082 -41.93701z" fill-rule="evenodd"/><path stroke="#000000" stroke-width="1.0" stroke-linejoin="round" stroke-linecap="butt" d="m494.14435 428.88452l0 0c0 -23.161163 19.502075 -41.93701 43.559082 -41.93701l0 0c11.552551 0 22.631958 4.418335 30.800903 12.283051c8.168884 7.8647156 12.758118 18.531555 12.758118 29.653961l0 0c0 23.161163 -19.502014 41.93701 -43.55902 41.93701l0 0c-24.057007 0 -43.559082 -18.775848 -43.559082 -41.93701z" fill-rule="evenodd"/></g></svg>