<svg version="1.1" viewBox="0.0 0.0 401.7007874015748 167.5748031496063" fill="none" stroke="none" stroke-linecap="square" stroke-miterlimit="10" xmlns:xlink="http://www.w3.org/1999/xlink" xmlns="http://www.w3.org/2000/svg"><clipPath id="p.0"><path d="m0 0l401.70078 0l0 167.5748l-401.70078 0l0 -167.5748z" clip-rule="nonzero"/></clipPath><g clip-path="url(#p.0)"><path fill="#000000" fill-opacity="0.0" d="m0 0l401.70078 0l0 167.5748l-401.70078 0z" fill-rule="evenodd"/><path fill="#000000" fill-opacity="0.0" d="m276.81104 120.83465l0 0c0 -23.691711 25.502136 -42.897644 56.960632 -42.897644l0 0c31.458466 0 56.9606 19.205933 56.9606 42.897644l0 0c0 23.691704 -25.502136 42.897636 -56.9606 42.897636l0 0c-31.458496 0 -56.960632 -19.205933 -56.960632 -42.897636z" fill-rule="evenodd"/><path stroke="#000000" stroke-width="1.0" stroke-linejoin="round" stroke-linecap="butt" d="m276.81104 120.83465l0 0c0 -23.691711 25.502136 -42.897644 56.960632 -42.897644l0 0c31.458466 0 56.9606 19.205933 56.9606 42.897644l0 0c0 23.691704 -25.502136 42.897636 -56.9606 42.897636l0 0c-31.458496 0 -56.960632 -19.205933 -56.960632 -42.897636z" fill-rule="evenodd"/><path fill="#000000" fill-opacity="0.0" d="m-0.002624672 121.2126l82.29921 -0.37795258" fill-rule="evenodd"/><path stroke="#000000" stroke-width="1.0" stroke-linejoin="round" stroke-linecap="butt" d="m-0.002624672 121.2126l76.29927 -0.3503952" fill-rule="evenodd"/><path fill="#000000" stroke="#000000" stroke-width="1.0" stroke-linecap="butt" d="m76.30424 122.513916l4.530464 -1.672554l-4.545639 -1.6308746z" fill-rule="evenodd"/><path fill="#000000" fill-opacity="0.0" d="m196.21785 120.83465l80.598434 0" fill-rule="evenodd"/><path stroke="#000000" stroke-width="1.0" stroke-linejoin="round" stroke-linecap="butt" d="m196.21785 120.83465l74.598434 0" fill-rule="evenodd"/><path fill="#000000" stroke="#000000" stroke-width="1.0" stroke-linecap="butt" d="m270.81628 122.48638l4.538086 -1.6517334l-4.538086 -1.6517334z" fill-rule="evenodd"/><path fill="#000000" fill-opacity="0.0" d="m334.01575 79.34482c5.625122 -8.203415 26.953644 -49.68898 33.75067 -49.220474c6.796997 0.46850395 5.859558 43.35958 7.031494 52.031494" fill-rule="evenodd"/><path stroke="#000000" stroke-width="1.0" stroke-linejoin="round" stroke-linecap="butt" d="m334.01575 79.34482c5.625122 -8.203415 26.953644 -49.68898 33.75067 -49.220474c6.796997 0.46850395 5.859558 43.35958 7.031494 52.031494" fill-rule="evenodd"/><path fill="#000000" d="m381.8294 76.54068l-4.9212646 0l0 -11.259842l-9.842529 0l0 11.259842l-4.9212646 0l9.842529 9.842522z" fill-rule="evenodd"/><path stroke="#000000" stroke-width="1.0" stroke-linejoin="round" stroke-linecap="butt" d="m381.8294 76.54068l-4.9212646 0l0 -11.259842l-9.842529 0l0 11.259842l-4.9212646 0l9.842529 9.842522z" fill-rule="evenodd"/><path fill="#000000" fill-opacity="0.0" d="m82.296585 120.83465l0 0c0 -23.691711 25.502144 -42.897644 56.960632 -42.897644l0 0c31.45848 0 56.960632 19.205933 56.960632 42.897644l0 0c0 23.691704 -25.502151 42.897636 -56.960632 42.897636l0 0c-31.458488 0 -56.960632 -19.205933 -56.960632 -42.897636z" fill-rule="evenodd"/><path stroke="#000000" stroke-width="1.0" stroke-linejoin="round" stroke-linecap="butt" d="m82.296585 120.83465l0 0c0 -23.691711 25.502144 -42.897644 56.960632 -42.897644l0 0c31.45848 0 56.960632 19.205933 56.960632 42.897644l0 0c0 23.691704 -25.502151 42.897636 -56.960632 42.897636l0 0c-31.458488 0 -56.960632 -19.205933 -56.960632 -42.897636z" fill-rule="evenodd"/><path fill="#000000" fill-opacity="0.0" d="m135.75066 79.343506c5.625107 -8.203415 26.953629 -49.68898 33.750656 -49.220474c6.7970276 0.46850395 5.8595734 43.35958 7.031494 52.031494" fill-rule="evenodd"/><path stroke="#000000" stroke-width="1.0" stroke-linejoin="round" stroke-linecap="butt" d="m135.75066 79.343506c5.625107 -8.203415 26.953629 -49.68898 33.750656 -49.220474c6.7970276 0.46850395 5.8595734 43.35958 7.031494 52.031494" fill-rule="evenodd"/><path fill="#000000" d="m186.37534 76.53937l-4.9212646 0l0 -11.259842l-9.842529 0l0 11.259842l-4.9212494 0l9.842514 9.842522z" fill-rule="evenodd"/><path stroke="#000000" stroke-width="1.0" stroke-linejoin="round" stroke-linecap="butt" d="m186.37534 76.53937l-4.9212646 0l0 -11.259842l-9.842529 0l0 11.259842l-4.9212494 0l9.842514 9.842522z" fill-rule="evenodd"/><path fill="#000000" fill-opacity="0.0" d="m135.73491 11.84252l30.960632 0l0 38.58268l-30.960632 0z" fill-rule="evenodd"/><path fill="#000000" d="m145.51616 32.168766q0 -2.359373 0.484375 -3.796873q0.484375 -1.453125 1.4375 -2.234375q0.96875 -0.78125 2.421875 -0.78125q1.078125 0 1.890625 0.4375q0.8125 0.421875 1.328125 1.25q0.53125 0.8125 0.828125 1.984375q0.3125 1.15625 0.3125 3.140623q0 2.359375 -0.484375 3.8125q-0.484375 1.4375 -1.453125 2.234375q-0.953125 0.78125 -2.421875 0.78125q-1.921875 0 -3.03125 -1.390625q-1.3125 -1.671875 -1.3125 -5.4375zm1.671875 0q0 3.296875 0.765625 4.390625q0.78125 1.078125 1.90625 1.078125q1.140625 0 1.90625 -1.09375q0.765625 -1.09375 0.765625 -4.375q0 -3.296873 -0.765625 -4.374998q-0.765625 -1.078125 -1.921875 -1.078125q-1.125 0 -1.796875 0.953125q-0.859375 1.21875 -0.859375 4.499998z" fill-rule="nonzero"/><path fill="#000000" fill-opacity="0.0" d="m111.82415 101.543304l54.866142 0l0 38.582687l-54.866142 0z" fill-rule="evenodd"/><path fill="#000000" d="m128.21477 132.16643l0 -4.734375q-0.37499237 0.546875 -1.0624924 0.90625q-0.6875 0.34375 -1.46875 0.34375q-1.71875 0 -2.96875 -1.375q-1.234375 -1.375 -1.234375 -3.765625q0 -1.46875 0.5 -2.625q0.515625 -1.15625 1.46875 -1.75q0.96875 -0.59375 2.109375 -0.59375q1.796875 0 2.8281174 1.515625l0 -1.296875l1.46875 0l0 13.375l-1.640625 0zm-5.0468674 -8.5625q0 1.859375 0.78125 2.796875q0.78125 0.9375 1.875 0.9375q1.046875 0 1.796875 -0.890625q0.7656174 -0.890625 0.7656174 -2.703125q0 -1.9375 -0.7968674 -2.90625q-0.796875 -0.96875 -1.875 -0.96875q-1.0625 0 -1.8125 0.90625q-0.734375 0.90625 -0.734375 2.828125zm8.81321 -1.734375q0 -2.359375 0.484375 -3.796875q0.484375 -1.453125 1.4375 -2.234375q0.96875 -0.78125 2.421875 -0.78125q1.078125 0 1.890625 0.4375q0.8125 0.421875 1.328125 1.25q0.53125 0.8125 0.828125 1.984375q0.3125 1.15625 0.3125 3.140625q0 2.359375 -0.484375 3.8125q-0.484375 1.4375 -1.453125 2.234375q-0.953125 0.78125 -2.421875 0.78125q-1.921875 0 -3.03125 -1.390625q-1.3125 -1.671875 -1.3125 -5.4375zm1.671875 0q0 3.296875 0.765625 4.390625q0.78125 1.078125 1.90625 1.078125q1.140625 0 1.90625 -1.09375q0.765625 -1.09375 0.765625 -4.375q0 -3.296875 -0.765625 -4.375q-0.765625 -1.078125 -1.921875 -1.078125q-1.125 0 -1.796875 0.953125q-0.859375 1.21875 -0.859375 4.5z" fill-rule="nonzero"/><path fill="#000000" fill-opacity="0.0" d="m306.3386 100.92913l54.86612 0l0 38.58268l-54.86612 0z" fill-rule="evenodd"/><path fill="#000000" d="m322.72922 131.55226l0 -4.7343826q-0.375 0.546875 -1.0625 0.90625q-0.6875 0.34375763 -1.46875 0.34375763q-1.71875 0 -2.96875 -1.3750076q-1.234375 -1.375 -1.234375 -3.765625q0 -1.46875 0.5 -2.625q0.515625 -1.15625 1.46875 -1.75q0.96875 -0.59375 2.109375 -0.59375q1.796875 0 2.828125 1.515625l0 -1.296875l1.46875 0l0 13.375008l-1.640625 0zm-5.046875 -8.562508q0 1.859375 0.78125 2.796875q0.78125 0.9375 1.875 0.9375q1.046875 0 1.796875 -0.890625q0.765625 -0.890625 0.765625 -2.703125q0 -1.9375 -0.796875 -2.90625q-0.796875 -0.96875 -1.875 -0.96875q-1.0625 0 -1.8125 0.90625q-0.734375 0.90625 -0.734375 2.828125zm14.985077 4.859375l-1.640625 0l0 -10.453125q-0.59375 0.5625 -1.5625 1.140625q-0.953125 0.5625 -1.71875 0.84375l0 -1.59375q1.375 -0.640625 2.40625 -1.5625q1.03125 -0.921875 1.453125 -1.78125l1.0625 0l0 13.40625z" fill-rule="nonzero"/><path fill="#000000" fill-opacity="0.0" d="m343.85828 0l30.929138 0l0 38.582676l-30.929138 0z" fill-rule="evenodd"/><path fill="#000000" d="m359.8114 26.919998l-1.640625 0l0 -10.453125q-0.59375 0.5625 -1.5625 1.140625q-0.953125 0.5625 -1.71875 0.84375l0 -1.59375q1.375 -0.640625 2.40625 -1.5625q1.03125 -0.921875 1.453125 -1.78125l1.0625 0l0 13.40625z" fill-rule="nonzero"/><path fill="#000000" fill-opacity="0.0" d="m199.23885 76.931755l54.866135 0l0 38.58268l-54.866135 0z" fill-rule="evenodd"/><path fill="#000000" d="m215.78572 95.27363l-1.171875 0.9375q-1.125 -0.84375 -2.09375 -0.84375q-0.796875 0 -1.171875 0.4375q-0.375 0.421875 -0.375 0.921875q0 0.625 0.546875 1.0625q0.546875 0.421875 1.609375 0.421875q0.140625 0 0.453125 -0.015625l0 1.375q-0.28125 -0.015625 -0.4375 -0.015625q-1.296875 0 -1.8125 0.515625q-0.5 0.5 -0.5 1.125q0 0.640625 0.5 1.09375q0.515625 0.4375 1.21875 0.4375q1.296875 0 2.40625 -1.203125l1.171875 1.0q-1.453125 1.546875 -3.625 1.546875q-1.703125 0 -2.546875 -0.859375q-0.828125 -0.875 -0.828125 -2.015625q0 -1.65625 1.609375 -2.34375q-1.34375 -0.75 -1.34375 -2.09375q0 -1.078125 0.78125 -1.9375q0.796875 -0.859375 2.4375 -0.859375q1.890625 0 3.171875 1.3125z" fill-rule="nonzero"/><path fill="#000000" fill-opacity="0.0" d="m284.75592 120.220474l0 0c0 -19.464775 21.730042 -35.244095 48.53543 -35.244095l0 0c26.805359 0 48.53543 15.77932 48.53543 35.244095l0 0c0 19.464767 -21.730072 35.244095 -48.53543 35.244095l0 0c-26.80539 0 -48.53543 -15.779327 -48.53543 -35.244095z" fill-rule="evenodd"/><path stroke="#000000" stroke-width="1.0" stroke-linejoin="round" stroke-linecap="butt" d="m284.75592 120.220474l0 0c0 -19.464775 21.730042 -35.244095 48.53543 -35.244095l0 0c26.805359 0 48.53543 15.77932 48.53543 35.244095l0 0c0 19.464767 -21.730072 35.244095 -48.53543 35.244095l0 0c-26.80539 0 -48.53543 -15.779327 -48.53543 -35.244095z" fill-rule="evenodd"/><path fill="#000000" fill-opacity="0.0" d="m90.72179 120.220474l0 0c0 -19.464775 21.73005 -35.244095 48.53543 -35.244095l0 0c26.805374 0 48.53543 15.77932 48.53543 35.244095l0 0c0 19.464767 -21.730057 35.244095 -48.53543 35.244095l0 0c-26.805382 0 -48.53543 -15.779327 -48.53543 -35.244095z" fill-rule="evenodd"/><path stroke="#000000" stroke-width="1.0" stroke-linejoin="round" stroke-linecap="butt" d="m90.72179 120.220474l0 0c0 -19.464775 21.73005 -35.244095 48.53543 -35.244095l0 0c26.805374 0 48.53543 15.77932 48.53543 35.244095l0 0c0 19.464767 -21.730057 35.244095 -48.53543 35.244095l0 0c-26.805382 0 -48.53543 -15.779327 -48.53543 -35.244095z" fill-rule="evenodd"/></g></svg>